<?xml version="1.0" encoding="UTF-8" standalone="no"?>
<svg
   xmlns:dc="http://purl.org/dc/elements/1.1/"
   xmlns:cc="http://creativecommons.org/ns#"
   xmlns:rdf="http://www.w3.org/1999/02/22-rdf-syntax-ns#"
   xmlns:svg="http://www.w3.org/2000/svg"
   xmlns="http://www.w3.org/2000/svg"
   xmlns:xlink="http://www.w3.org/1999/xlink"
   xmlns:sodipodi="http://sodipodi.sourceforge.net/DTD/sodipodi-0.dtd"
   xmlns:inkscape="http://www.inkscape.org/namespaces/inkscape"
   version="1.0"
   width="642"
   height="656"
   viewBox="52 177 642 656"
   id="svg2"
   inkscape:version="0.91 r13725"
   sodipodi:docname="heart_anatomy.svg">
  <metadata
     id="metadata105">
    <rdf:RDF>
      <cc:Work
         rdf:about="">
        <dc:format>image/svg+xml</dc:format>
        <dc:type
           rdf:resource="http://purl.org/dc/dcmitype/StillImage" />
        <dc:title></dc:title>
      </cc:Work>
    </rdf:RDF>
  </metadata>
  <sodipodi:namedview
     pagecolor="#ffffff"
     bordercolor="#666666"
     borderopacity="1"
     objecttolerance="10"
     gridtolerance="10"
     guidetolerance="10"
     inkscape:pageopacity="0"
     inkscape:pageshadow="2"
     inkscape:window-width="2495"
     inkscape:window-height="1416"
     id="namedview103"
     showgrid="false"
     showguides="false"
     inkscape:zoom="1.0175439"
     inkscape:cx="128.01244"
     inkscape:cy="418.16477"
     inkscape:window-x="65"
     inkscape:window-y="24"
     inkscape:window-maximized="1"
     inkscape:current-layer="svg2" />
  <defs
     id="defs668">
    <linearGradient
       x1="0"
       y1="0"
       x2="1"
       y2="0"
       id="linearGradient695"
       gradientUnits="objectBoundingBox"
       spreadMethod="pad">
      <stop
         style="stop-color:#ff0000;stop-opacity:1"
         offset="0"
         id="stop696" />
      <stop
         style="stop-color:#ffd700;stop-opacity:1"
         offset="1"
         id="stop697" />
    </linearGradient>
    <linearGradient
       x1="0"
       y1="0"
       x2="1"
       y2="0"
       id="linearGradient691"
       gradientUnits="objectBoundingBox"
       spreadMethod="pad">
      <stop
         style="stop-color:#000000;stop-opacity:1"
         offset="0"
         id="stop692" />
      <stop
         style="stop-color:#ffffff;stop-opacity:1"
         offset="1"
         id="stop693" />
    </linearGradient>
    <linearGradient
       x1="0"
       y1="1.5000001e-007"
       x2="1"
       y2="1.5000001e-007"
       id="linearGradient694"
       xlink:href="#linearGradient695"
       gradientUnits="objectBoundingBox"
       spreadMethod="pad" />
    <radialGradient
       cx="0.5"
       cy="0.50000018"
       r="0.5"
       fx="0.5"
       fy="0.50000018"
       id="radialGradient698"
       xlink:href="#linearGradient695"
       gradientUnits="objectBoundingBox"
       spreadMethod="pad" />
    <linearGradient
       x1="0"
       y1="0"
       x2="1"
       y2="0"
       id="linearGradient567"
       xlink:href="#linearGradient695"
       gradientUnits="objectBoundingBox"
       spreadMethod="pad" />
  </defs>
  <path
     d="M 508.573,484.232 C 518.413,485.267 562.952,567.613 560.362,633.903 C 557.773,700.194 544.307,742.661 523.074,735.928 C 501.84,729.196 449.532,633.386 422.084,603.348 C 394.636,573.31 357.865,535.503 357.865,535.503 L 508.573,484.232 z "
     style="font-size:12px;fill:#ffffff;fill-rule:evenodd;stroke:#000000;stroke-width:1.25;fill-opacity:1"
     id="left_ventricle" />
  <path
     d="M 219.069,653.065 L 211.021,766.978 C 214.646,781.479 225.522,792.354 242.613,793.39 C 259.703,794.427 269.025,783.551 276.276,774.747 L 283.807,695.533"
     transform="translate(-10.61289,-3.411667)"
     style="font-size:12px;fill:#c8c8c8;fill-rule:evenodd;stroke:#000000;stroke-width:2.5;fill-opacity:1"
     id="inferior_vena_cava" />
  <path
     d="M 132.938,385.437 C 154.176,385.086 288.568,393.596 348.881,392.036 C 409.194,390.476 553.266,372.917 577.703,376.037 L 578.223,424.912 C 555.866,425.952 510.582,427.392 500.185,448.71 C 485.626,482.506 409.714,435.192 370.719,436.232 C 327.046,437.38 162.372,439.453 133.458,435.871 C 127.813,430.433 120.845,424.463 121.499,410.394 C 121.647,394.289 127.218,390.117 132.938,385.437 z "
     style="font-size:12px;fill:#c8c8c8;fill-rule:evenodd;stroke:#000000;stroke-width:2.5;fill-opacity:1"
     id="pulmonary_vein_2"
     transform="translate(6.239319,58.23346)" />
  <path
     id="path4233"
     style="font-size:12px;opacity:0.98999999;fill:#ff9191;fill-opacity:1;fill-rule:evenodd;stroke:#000000;stroke-width:3.5;stroke-miterlimit:4;stroke-dasharray:none;stroke-opacity:1"
     d="m 375.60601,542.12025 c 13.519,14.558 38.357,45.681 54.71,56.372 19.658,12.378 46.47299,41.85703 56.79199,65.53003 13.106,28.39699 30.581,60.43399 42.231,50.96899 11.65001,-9.466 19.65901,-50.23999 11.65001,-88.10099 C 536.041,604.40225 519.348,587.83425 513.319,548.98125 c -6.552,-40.047 1.458,-56.793 -1.455,-67.715"
     inkscape:connector-curvature="0"
     sodipodi:nodetypes="ccccccc" />
  <path
     d="M 154.739,383.037 C 175.977,382.686 315.605,394.116 375.918,392.556 C 436.231,390.996 538.14,377.997 562.577,381.117 L 563.097,429.992 C 540.74,431.032 510.582,427.392 500.185,448.71 C 485.626,482.506 409.714,435.192 370.719,436.232 C 327.046,437.38 184.173,437.053 155.259,433.471 C 149.614,426.993 143.166,424.143 143.3,407.994 C 142.914,391.893 149.539,388.757 154.739,383.037 z "
     style="font-size:12px;fill:#c8c8c8;fill-rule:evenodd;stroke:#000000;stroke-width:2.5;fill-opacity:1"
     id="pulmonary_vein_1" />
  <path
     d="m 365.6277,434.67422 c 7.658,-40.845 77.365,-46.265 102.024,-31.072 33.345,20.543 52.308,82.344 52.308,82.344 0,0 -21.894,-2.688 -33.145,13.466 -8.948,12.848 -9.84,42.467 -9.84,42.467 0,0 -7.251,-29.002 -22.788,-34.181 -15.536,-5.179 -28.484,0.518 -39.36,4.143 -10.358,-9.322 -53.97,-51.722 -49.199,-77.167 z"
     style="font-size:12px;fill:#ff9191;fill-rule:evenodd;stroke-width:1pt;fill-opacity:1"
     id="left_atrium"
     inkscape:connector-curvature="0" />
  <path
     d="M 353.723,537.057 C 394.118,562.434 416.905,602.312 445.907,641.672 C 474.91,681.032 511.162,736.964 500.286,746.804 C 489.411,756.644 406.862,752.239 339.739,729.196 C 286.344,710.881 240.821,665.495 240.821,665.495 L 353.723,537.057 z "
     style="font-size:12px;fill:#ff9191;fill-rule:evenodd;stroke-width:1.25;fill-opacity:1"
     id="right_ventricle" />
  <path
     d="M 296.236,340.775 C 263.091,339.739 177.778,328.83 160.007,326.794 C 153.594,328.846 147.768,335.896 147.528,349.587 C 147.34,360.736 154.114,365.649 160.007,370.301 C 160.007,370.301 263.608,382.206 295.2,386.349"
     transform="translate(-0.517883,0.517853)"
     style="font-size:12px;fill:#c8c8c8;fill-rule:evenodd;stroke:#000000;stroke-width:2.5;fill-opacity:1"
     id="pulmonary_artery_2" />
  <path
     d="M 215.962,423.12 C 216.48,438.657 189.079,547.46 192.139,576.417 C 198.872,640.636 251.179,682.068 260.501,687.247 C 262.573,680.514 263.609,647.886 282.253,639.082 C 300.897,630.278 324.202,643.225 324.202,643.225 C 324.202,643.225 309.184,624.064 309.184,606.972 C 309.184,589.883 322.648,576.935 328.345,571.238 C 329.381,557.255 332.488,513.752 321.612,482.678 C 310.737,451.604 278.11,413.798 278.11,413.798 L 215.962,423.12 z "
     style="font-size:12px;fill:#ff9191;fill-rule:evenodd;stroke-width:1pt;fill-opacity:1"
     id="right_atrium" />
  <path
     d="M 434.002,525.693 C 410.223,485.324 369.24,470.051 341.811,400.333 C 326.882,361.657 362.68,306.047 401.887,334.042 C 425.817,351.499 409.611,392.825 414.272,390.754 L 468.371,386.129 C 468.371,380.95 469.73,372.884 456.783,320.577 C 448.471,287.661 430.888,284.842 435.031,268.787 C 439.174,252.732 451.086,237.714 451.086,237.714 L 424.156,216.998 C 424.156,216.998 403.958,265.162 395.671,264.126 C 387.385,263.09 399.815,215.962 399.815,215.962 L 362.526,212.855 C 362.526,212.855 367.706,262.055 356.83,269.824 C 345.954,277.592 322.131,220.623 322.131,220.623 L 293.646,237.714 C 293.646,237.714 313.844,261.536 309.183,283.288 C 304.522,305.04 272.931,325.756 276.556,400.333 C 279.349,457.383 325.739,497.517 343.365,520.485 C 360.455,542.236 399.232,587.682 411.254,581.659 C 406.523,557.756 414.725,531.305 434.002,525.693 z "
     style="font-size:12px;fill:#c8c8c8;fill-rule:evenodd;stroke:#000000;stroke-width:2.5;fill-opacity:1"
     id="aorta" />
  <path
     d="M 393.806,563.203 C 393.806,576.12 376.123,577.424 354.762,577.939 C 336.281,578.385 326.183,570.688 326.183,557.772 C 326.183,544.857 335.587,536.124 359.736,536.124 C 382.193,536.124 393.806,550.289 393.806,563.203 z "
     transform="matrix(0.578761,-0.718335,1.263224,1.017777,-506.8972,229.5155)"
     style="font-size:12px;fill:#323232;fill-rule:evenodd;stroke:#000000;stroke-width:2.04364991;fill-opacity:0.98113209"
     id="path592" />
  <path
     d="M 208.712,427.781 C 214.408,409.137 204.338,245.12 204.338,245.12 C 204.338,245.12 210.553,230.1 235.93,231.136 C 261.306,232.172 265.968,248.745 265.968,248.745 L 279.145,422.084"
     style="font-size:12px;fill:#c8c8c8;fill-rule:evenodd;stroke:#000000;stroke-width:2.5;fill-opacity:1"
     id="superior_vena_cava" />
  <ellipse
     cx="250.87192"
     cy="434.41135"
     rx="31.456482"
     ry="21.057648"
     transform="matrix(1.049425,-0.353733,0.378566,1.123099,-181.7923,31.88649)"
     style="font-size:12px;fill:#323232;fill-rule:evenodd;stroke:#000000;stroke-width:2.1821599;fill-opacity:0.98113209"
     id="vena_cava_in_2" />
  <path
     d="M 389.377,422.836 L 393.817,404.594 C 417.574,392.693 442.843,393.36 460.113,399.515 C 513.247,419.181 518.56,475.733 534.101,489.889 C 602.785,553.949 615.862,742.02 560.662,765.287 C 445.615,813.474 252.131,730.14 202.022,647.172 C 149.112,560.772 203.302,504.387 208.806,425.868 L 214.21,447.36 C 215.758,530.82 193.679,509.553 206.785,590.738 C 216.978,629.328 247.972,674.291 305.079,699.226 C 379.711,732.765 476.186,748.01 485.652,736.36 C 495.117,724.711 441.238,682.48 426.675,648.259 C 412.113,614.037 412.113,600.931 402.647,590.738 C 393.182,580.544 383.923,565.046 375.604,557.766 L 375.606,543.103 C 389.125,557.661 413.963,588.784 430.316,599.475 C 449.974,611.853 476.789,641.332 487.108,665.005 C 500.214,693.402 517.689,725.439 529.339,715.974 C 540.989,706.508 548.998,665.734 540.989,627.873 C 536.041,605.385 519.348,588.817 513.319,549.964 C 506.767,509.917 514.777,493.171 511.864,482.249 C 508.952,471.328 492.205,430.553 463.808,415.991 C 436.963,403.601 410.492,412.642 389.377,422.836 z "
     style="font-size:12px;opacity:0.98999999;fill:#cf0003;fill-rule:evenodd;stroke:#000000;stroke-width:2.5;fill-opacity:1;stroke-opacity:1"
     id="heart" />
  <path
     d="M 385.834,569.669 C 372.28,507.979 380.652,432.959 408.1,389.975 C 435.549,346.989 540.682,358.901 540.682,358.901 L 540.682,322.13 C 521.002,320.577 463.934,318.303 427.264,328.863 C 381.532,341.805 362.526,316.433 344.918,352.168 C 333.3,375.403 341.293,394.636 336.114,413.28 C 330.935,431.924 316.435,536.539 322.13,572.791 C 342.392,560.243 364.058,555.037 385.834,569.669 z "
     style="font-size:12px;fill:#c8c8c8;fill-rule:evenodd;stroke:#000000;stroke-width:2.5;fill-opacity:1;stroke-opacity:1"
     id="pulmonary_artery_1"
     transform="translate(0,0.517853)" />
  <ellipse
     cx="548.70959"
     cy="341.55151"
     rx="13.724213"
     ry="19.938919"
     style="font-size:12px;fill:#323232;fill-rule:evenodd;stroke:#000000;stroke-width:2.80576992;fill-opacity:0.98113209"
     id="path564"
     transform="matrix(0.849057,0,0,0.935062,76.60906,21.92059)" />
  <path
     d="M 259.451,669.164 C 249.261,666.386 251.299,642.357 275.569,632.769 C 295.829,624.246 307.805,631.729 324.963,643.168 C 308.845,641.088 300.162,635.141 281.289,645.768 C 263.891,656.083 267.386,670.807 259.451,669.164 z "
     style="font-size:12px;fill:#ffffff;fill-rule:evenodd;stroke:#000000;stroke-width:2.5;stroke-linejoin:round"
     id="tricuspid_valve_1" />
  <path
     d="M 262.508,666.93 C 251.999,665.874 251.299,642.357 275.569,632.769 C 295.829,624.246 307.805,631.729 324.963,643.168 C 308.845,641.088 297.853,634.868 278.98,645.495 C 261.582,655.81 272.711,667.484 262.508,666.93 z "
     transform="matrix(0.339116,0.940745,0.940745,-0.339116,-389.9721,555.9836)"
     style="font-size:12px;fill:#ffffff;fill-rule:evenodd;stroke:#000000;stroke-width:2.5;stroke-linejoin:round"
     id="tricuspid_valve_2" />
  <path
     d="M 261.127,654.534 C 250.792,652.358 258.258,640.148 274.486,632.345 C 289.046,625.201 307.805,631.729 324.963,643.168 C 308.845,641.088 295.37,635.258 280.747,642.058 C 262.485,650.754 276.341,658.257 261.127,654.534 z "
     transform="matrix(0.743056,0.669229,-0.669229,0.743056,670.4603,-146.6114)"
     style="font-size:12px;fill:#ffffff;fill-rule:evenodd;stroke:#000000;stroke-width:2.5;stroke-linejoin:round"
     id="mitral_valve_1" />
  <path
     d="M 394.854,561.9 C 394.854,574.816 383.243,575.808 361.882,576.323 C 343.401,576.769 324.964,572.893 324.964,559.977 C 324.964,547.062 334.915,526.965 359.064,526.965 C 381.521,526.965 394.854,548.985 394.854,561.9 z "
     transform="matrix(0.92248,0,0,1.622222,21.03153,-346.8703)"
     style="font-size:12px;fill:#323232;fill-rule:evenodd;stroke:#000000;stroke-width:2.04364991;fill-opacity:0.98113209"
     id="path591" />
  <path
     d="M 288.941,683.295 C 250.535,672.863 256.755,643.017 274.147,638.896 C 288.539,636.081 319.906,648.527 328.838,673.218 C 317.005,663.579 306.016,657.815 295.711,664.789 C 282.163,673.019 301.403,686.658 288.941,683.295 z "
     transform="matrix(0.205976,-0.612018,-0.568278,-0.254675,649.0895,906.7903)"
     style="font-size:12px;fill:#ffffff;fill-rule:evenodd;stroke:#000000;stroke-width:3.95160007;stroke-linejoin:round"
     id="pulmonary_valve_1" />
  <path
     d="M 273.031,676.614 C 262.932,673.697 249.909,653.345 270.94,640.478 C 284.031,632.844 319.906,648.527 328.838,673.218 C 317.005,663.579 309.045,660.743 292.351,662.657 C 277.271,664.905 285.335,680.427 273.031,676.614 z "
     transform="matrix(-0.205976,-0.612018,0.568278,-0.254675,57.71602,908.3502)"
     style="font-size:12px;fill:#ffffff;fill-rule:evenodd;stroke:#000000;stroke-width:3.95160007;stroke-linejoin:round"
     id="pulmonary_valve_2" />
  <path
     d="M 286.864,677.122 C 253.045,674.145 256.755,643.017 274.147,638.896 C 288.539,636.081 319.906,648.527 328.838,673.218 C 317.005,663.579 303.182,653.947 292.877,660.921 C 279.329,669.151 299.84,678.525 286.864,677.122 z "
     transform="matrix(-0.334885,-0.552127,-0.561135,0.27005,874.679,543.3607)"
     style="font-size:12px;fill:#ffffff;fill-rule:evenodd;stroke:#000000;stroke-width:3.95160007;stroke-linejoin:round"
     id="aortic_valve_1" />
  <path
     d="M 278.697,675.236 C 265.488,673.552 256.021,653.528 277.052,640.661 C 290.143,633.027 319.906,648.527 328.838,673.218 C 317.005,663.579 313.156,659.982 296.462,661.896 C 281.382,664.144 291.534,677.294 278.697,675.236 z "
     transform="matrix(-0.600568,-0.237298,0.171871,-0.598548,491.3536,993.7164)"
     style="font-size:12px;fill:#ffffff;fill-rule:evenodd;stroke:#000000;stroke-width:3.95160007;stroke-linejoin:round"
     id="aortic_valve_2" />
  <ellipse
     cx="250.87192"
     cy="434.41135"
     rx="31.456482"
     ry="21.057648"
     transform="matrix(0.717389,-0.744054,0.95079,0.71512,-339.4749,428.6958)"
     style="font-size:12px;fill:#323232;fill-rule:evenodd;stroke:#000000;stroke-width:2.26296997;fill-opacity:0.98113209"
     id="vena_cava_in_1" />
  <ellipse
     cx="382.15723"
     cy="216.81569"
     rx="20.277725"
     ry="12.478638"
     transform="matrix(0.945601,7.752258e-2,-6.628828e-2,0.83062,34.12192,2.938736)"
     style="font-size:12px;fill:#323232;fill-rule:evenodd;stroke:#000000;stroke-width:2.81170011;fill-opacity:0.98113209"
     id="path597" />
  <ellipse
     cx="382.15723"
     cy="216.81569"
     rx="20.277725"
     ry="12.478638"
     transform="matrix(0.732703,0.515286,-0.464454,0.626108,260.8245,-108.0556)"
     style="font-size:12px;fill:#323232;fill-rule:evenodd;stroke:#000000;stroke-width:2.99218011;fill-opacity:0.98113209"
     id="path598" />
  <ellipse
     cx="382.15723"
     cy="216.81569"
     rx="20.277725"
     ry="12.478638"
     transform="matrix(0.740708,-0.430883,0.327749,0.711617,-47.10216,238.3697)"
     style="font-size:12px;fill:#323232;fill-rule:evenodd;stroke:#000000;stroke-width:3.05806994;fill-opacity:0.98113209"
     id="path599" />
  <ellipse
     cx="571.41608"
     cy="405.03461"
     rx="15.078308"
     ry="25.477158"
     transform="matrix(1,0,0,0.969388,-7.799148,12.65858)"
     style="font-size:12px;fill:#323232;fill-rule:evenodd;stroke:#000000;stroke-width:2.53917003;fill-opacity:0.98113209"
     id="path602" />
  <ellipse
     cx="571.41608"
     cy="405.03461"
     rx="15.078308"
     ry="25.477158"
     transform="matrix(1,0,0,0.969388,11.3264,66.41187)"
     style="font-size:12px;fill:#323232;fill-rule:evenodd;stroke:#000000;stroke-width:2.53917003;fill-opacity:0.98113209"
     id="path603" />
  <ellipse
     cx="571.41608"
     cy="405.03461"
     rx="15.078308"
     ry="25.477158"
     transform="matrix(1.145182,1.541563,-0.876179,0.146717,162.2962,-494.4513)"
     style="font-size:12px;fill:#323232;fill-rule:evenodd;stroke:#000000;stroke-width:2.02863002;fill-opacity:0.98113209"
     id="path604" />
  <text
     x="83.057465"
     y="-1.1634213"
     style="font-weight:normal;font-size:20px;font-family:'Nimbus Sans L';text-anchor:middle;stroke-width:1pt"
     id="text680">
    <tspan
       x="83.057465"
       y="-1.1634213"
       id="tspan697">Superior</tspan>
    <tspan
       x="83.057465"
       y="18.836578"
       id="tspan699">Vena Cava</tspan>
  </text>
  <text
     x="-232.15977"
     y="139.9808"
     style="font-weight:normal;font-size:20px;font-family:'Nimbus Sans L';text-anchor:middle;stroke-width:1pt"
     id="text704">
    <tspan
       id="tspan705">Aorta</tspan>
  </text>
  <text
     x="-74.660545"
     y="115.80633"
     style="font-weight:normal;font-size:20px;font-family:'Nimbus Sans L';text-anchor:middle;stroke-width:1pt"
     id="text707">
    <tspan
       id="tspan708">Pulmonary</tspan>
    <tspan
       x="-74.660545"
       y="135.80634"
       id="tspan712">Artery</tspan>
  </text>
  <text
     x="790.70477"
     y="314.49182"
     style="font-weight:normal;font-size:20px;font-family:'Nimbus Sans L';text-anchor:middle;stroke-width:1pt"
     id="text714">
    <tspan
       id="tspan715">Pulmonary</tspan>
    <tspan
       x="790.70477"
       y="334.49182"
       id="tspan717">Vein</tspan>
  </text>
  <text
     x="-278.56537"
     y="605.91516"
     style="font-weight:normal;font-size:20px;font-family:'Nimbus Sans L';text-anchor:middle;stroke-width:1pt"
     id="text719">
    <tspan
       id="tspan720">Right</tspan>
    <tspan
       x="-278.56537"
       y="625.91516"
       id="tspan722">Ventricle</tspan>
  </text>
  <text
     x="-139.65315"
     y="433.43893"
     style="font-weight:normal;font-size:20px;font-family:'Nimbus Sans L';text-anchor:middle;stroke-width:1pt"
     id="text724">
    <tspan
       id="tspan725">Left</tspan>
    <tspan
       x="-139.65315"
       y="453.43893"
       id="tspan727">Ventricle</tspan>
  </text>
  <text
     x="-236.78116"
     y="437.10779"
     style="font-weight:normal;font-size:20px;font-family:'Nimbus Sans L';text-anchor:middle;stroke-width:1pt"
     id="text729">
    <tspan
       id="tspan730">Right</tspan>
    <tspan
       x="-236.78116"
       y="457.10779"
       id="tspan732">Atrium</tspan>
  </text>
  <text
     x="786.79205"
     y="221.23973"
     style="font-weight:normal;font-size:20px;font-family:'Nimbus Sans L';text-anchor:middle;stroke-width:1.25;stroke-dashoffset:0"
     id="text734">
    <tspan
       style="stroke-dashoffset:0"
       id="tspan735">Left</tspan>
    <tspan
       x="786.79205"
       y="241.23973"
       style="stroke-dashoffset:0"
       id="tspan737">Atrium</tspan>
  </text>
  <text
     x="-254.83105"
     y="665.86627"
     style="font-weight:normal;font-size:20px;font-family:'Nimbus Sans L';text-anchor:middle;stroke-width:1pt"
     id="text739">
    <tspan
       id="tspan740">Inferior Vena Cava</tspan>
  </text>
  <text
     x="796.90875"
     y="415.88959"
     style="font-weight:normal;font-size:20px;font-family:'Nimbus Sans L';text-anchor:middle;stroke-width:1pt"
     id="text742">
    <tspan
       id="tspan743">Mitral</tspan>
    <tspan
       x="796.90875"
       y="435.88959"
       id="tspan745">Valve</tspan>
  </text>
  <text
     x="-84.090088"
     y="297.28189"
     style="font-weight:normal;font-size:20px;font-family:'Nimbus Sans L';text-anchor:middle;stroke-width:1pt"
     id="text747">
    <tspan
       id="tspan748">Aortic</tspan>
    <tspan
       x="-84.090088"
       y="317.28189"
       id="tspan750">Valve</tspan>
  </text>
  <text
     x="-235.90515"
     y="503.05576"
     style="font-weight:normal;font-size:20px;font-family:'Nimbus Sans L';text-anchor:middle;stroke-width:1pt"
     id="text752">
    <tspan
       id="tspan753">Tricuspid</tspan>
    <tspan
       x="-235.90515"
       y="523.05579"
       id="tspan755">Valve</tspan>
  </text>
  <text
     x="-195.05298"
     y="451.68561"
     style="font-weight:normal;font-size:20px;font-family:'Nimbus Sans L';text-anchor:middle;stroke-width:1pt"
     id="text757">
    <tspan
       id="tspan758">Pulmonary</tspan>
    <tspan
       x="-195.05298"
       y="471.68561"
       id="tspan760">Valve</tspan>
  </text>
  <path
     d="m 962.19647,509.37449 -151.52,1.456"
     style="font-size:12px;fill:none;fill-rule:evenodd;stroke:#000000;stroke-width:2.5;stroke-dasharray:2.5, 2.5;stroke-dashoffset:0"
     id="path764"
     inkscape:connector-curvature="0" />
  <path
     d="m -85.182967,347.81983 -210.945003,-45.88"
     style="font-size:12px;fill:none;fill-rule:evenodd;stroke:#000000;stroke-width:2.5;stroke-dasharray:2.5, 2.5;stroke-dashoffset:0"
     id="path765"
     inkscape:connector-curvature="0" />
  <path
     d="m -105.77156,223.56051 2.7,38.406 -6.001,0.6 10.802,14.103 6.001,-16.503 -5.701,0.6 -3.3,-37.807 -4.501,0.601 z"
     style="font-size:12px;fill:#ffffff;fill-rule:evenodd;stroke-width:1.25"
     id="path766"
     inkscape:connector-curvature="0" />
  <path
     d="m -151.24379,631.62805 5.08297,-38.1638 5.999,0.61975 -7.74339,-15.98806 -9.19887,14.95801 5.70513,0.55938 -4.37471,37.69777 4.52987,0.31695 z"
     style="font-size:12px;fill:#ffffff;fill-rule:evenodd;stroke-width:1.25"
     id="path767"
     inkscape:connector-curvature="0" />
  <path
     d="m -82.014706,590.39858 5.082968,-38.1638 5.998995,0.61975 -7.743385,-15.98806 -9.198869,14.95801 5.705131,0.55938 -4.374714,37.69777 4.529874,0.31695 z"
     style="font-size:12px;fill:#ffffff;fill-rule:evenodd;stroke-width:1.25"
     id="path768"
     inkscape:connector-curvature="0" />
  <path
     d="m -52.63605,586.2271 20.587738,32.53395 -4.999025,3.37369 16.197578,7.29498 -2.541526,-17.37533 -4.734893,3.23144 -20.831981,-31.72207 -3.677891,2.66334 z"
     style="font-size:12px;fill:#ffffff;fill-rule:evenodd;stroke-width:1.25"
     id="path769"
     inkscape:connector-curvature="0" />
  <path
     d="m -453.67142,565.95302 195.197,-56.013"
     style="font-size:12px;fill:none;fill-rule:evenodd;stroke:#000000;stroke-width:2.5;stroke-dasharray:2.5, 2.5;stroke-dashoffset:0"
     id="path762"
     inkscape:connector-curvature="0" />
  <path
     d="m 828.6255,287.49464 4.93961,38.18259 -5.95568,0.94964 11.60764,13.44769 5.0264,-16.82546 -5.65619,0.93211 -5.50359,-37.54955 -4.45819,0.86298 z"
     style="font-size:12px;fill:#ffffff;fill-rule:evenodd;stroke-width:1.25"
     id="path770"
     inkscape:connector-curvature="0" />
  <path
     d="m -237.718,574.71785 121.361,-44.131"
     style="font-size:12px;fill:none;fill-rule:evenodd;stroke:#000000;stroke-width:2.5;stroke-dasharray:2.5, 2.5;stroke-dashoffset:0"
     id="path763"
     inkscape:connector-curvature="0" />
  <path
     d="m -181.08533,177.71665 -38.19428,4.84848 -0.93543,-5.95794 -13.47536,11.57551 16.81343,5.06655 -0.91861,-5.6584 37.5626,-5.41396 -0.85235,-4.46024 z"
     style="font-size:12px;fill:#ffffff;fill-rule:evenodd;stroke-width:1.25"
     id="path771"
     inkscape:connector-curvature="0" />
  <path
     d="m -180.999,355.45055 38.41949,2.50108 -0.2143,6.02711 15.43024,-8.80261 -15.5436,-8.17055 -0.17387,5.72985 -37.90683,-1.82581 -0.0111,4.54093 z"
     style="font-size:12px;fill:#ffffff;fill-rule:evenodd;stroke-width:1.25"
     id="path772"
     inkscape:connector-curvature="0" />
  <path
     d="m -185.86242,422.91579 38.41949,2.50107 -0.2143,6.02712 15.43024,-8.80261 -15.5436,-8.17056 -0.17386,5.72986 -37.90683,-1.82582 -0.0111,4.54094 z"
     style="font-size:12px;fill:#ffffff;fill-rule:evenodd;stroke-width:1.25"
     id="path773"
     inkscape:connector-curvature="0" />
  <path
     d="m 906.47668,225.76244 -38.40895,2.65797 -0.59343,-6.00166 -14.11483,10.78657 16.49644,6.01906 -0.59376,-5.70166 37.81061,-3.25863 -0.59608,-4.50165 z"
     style="font-size:12px;fill:#ffffff;fill-rule:evenodd;stroke-width:1.25"
     id="path774"
     inkscape:connector-curvature="0" />
  <path
     d="m -106.11391,627.67763 -0.25602,-38.49993 6.02698,-0.21776 -9.88475,-14.7604 -7.03672,16.08867 5.72759,-0.23681 0.89284,37.94023 4.53008,-0.314 z"
     style="font-size:12px;fill:#ffffff;fill-rule:evenodd;stroke-width:1.25"
     id="path775"
     inkscape:connector-curvature="0" />
  <path
     d="m -128.90943,574.62908 -31.45687,-22.19857 3.33059,-5.02784 -17.75593,-0.55227 8.98786,15.08574 3.14085,-4.79546 31.37236,21.35497 2.38114,-3.86657 z"
     style="font-size:12px;fill:#ffffff;fill-rule:evenodd;stroke-width:1.25"
     id="path776"
     inkscape:connector-curvature="0" />
  <path
     d="m -89.12631,549.80951 -6.250232,-37.99006 5.91949,-1.15396 -12.063388,-13.04041 -4.44461,16.98842 5.62078,-1.12614 6.792097,37.338 4.425863,-1.01585 z"
     style="font-size:12px;fill:#ffffff;fill-rule:evenodd;stroke-width:1.25"
     id="path777"
     inkscape:connector-curvature="0" />
  <path
     d="m 94.921962,145.50257 38.479118,-1.29268 0.37998,6.01894 14.48888,-10.27866 -16.27235,-6.60093 0.39097,5.71914 -37.902478,1.91421 0.43588,4.51998 z"
     style="font-size:12px;fill:#ffffff;fill-rule:evenodd;stroke-width:1.25"
     id="path867"
     inkscape:connector-curvature="0" />
  <path
     d="m -95.672842,258.59771 -38.131398,-5.32045 0.65708,-5.99502 -16.03594,7.6437 14.90044,9.29181 0.59489,-5.70154 37.669788,4.60931 0.34514,-4.52781 z"
     style="font-size:12px;fill:#ffffff;fill-rule:evenodd;stroke-width:1.25"
     id="path868"
     inkscape:connector-curvature="0" />
  <path
     d="m -140.14904,180.18133 -17.55969,-34.26322 5.28376,-2.90755 -15.4711,-8.73057 0.95902,17.534 5.00784,-2.78979 17.8764,33.47677 3.90377,-2.31964 z"
     style="font-size:12px;fill:#ffffff;fill-rule:evenodd;stroke-width:1.25"
     id="path869"
     inkscape:connector-curvature="0" />
  <path
     d="m -204.67862,187.9873 19.08477,-33.43773 5.32363,2.8339 -1.1503,-17.72723 -14.1559,10.39094 5.07415,2.66729 -18.25314,33.27284 4.07679,1.99999 z"
     style="font-size:12px;fill:#ffffff;fill-rule:evenodd;stroke-width:1.25"
     id="path870"
     inkscape:connector-curvature="0" />
  <path
     d="m -20.678512,167.30947 0.540698,-38.497 6.030205,-0.093 -9.57721,-14.96178 -7.368137,15.93962 5.731268,-0.11824 0.107569,37.95061 4.535607,-0.2202 z"
     style="font-size:12px;fill:#ffffff;fill-rule:evenodd;stroke-width:1.25"
     id="path871"
     inkscape:connector-curvature="0" />
  <path
     d="m -27.571318,353.01967 c 9.84,1.035 54.379,83.381 51.789,149.671 -2.589,66.291 -16.0549995,108.758 -37.288,102.025 -21.234,-6.732 -73.542,-102.542 -100.990002,-132.58 -27.448,-30.038 -64.219,-67.845 -64.219,-67.845 l 150.708002,-51.271 z"
     style="font-size:12px;fill:#7f7fe6;fill-rule:evenodd;stroke:#000000;stroke-width:1.25"
     id="left_ventricle-3"
     inkscape:connector-curvature="0" />
  <text
     xml:space="preserve"
     style="font-style:normal;font-variant:normal;font-weight:normal;font-stretch:normal;font-size:20px;line-height:125%;font-family:'TeX Gyre Schola Math';-inkscape-font-specification:'TeX Gyre Schola Math';letter-spacing:0px;word-spacing:0px;fill:#000000;fill-opacity:1;stroke:none;stroke-width:1px;stroke-linecap:butt;stroke-linejoin:miter;stroke-opacity:1"
     x="466.23276"
     y="595.66382"
     id="text4396"
     sodipodi:linespacing="125%"><tspan
       sodipodi:role="line"
       id="tspan4398"
       x="466.23276"
       y="595.66382">LV</tspan></text>
  <path
     id="path4241"
     style="font-size:12px;opacity:0.98999999;fill:none;fill-opacity:1;fill-rule:evenodd;stroke:#000000;stroke-width:3.5;stroke-miterlimit:4;stroke-dasharray:none;stroke-opacity:1"
     d="m 393.817,405.61124 c 23.757,-11.901 49.026,-11.234 66.296,-5.079 53.134,19.666 58.447,76.218 73.988,90.374 68.684,64.06 81.761,252.13086 26.561,275.39786 -115.047,48.187 -308.531,-35.147 -358.64,-118.1149 -52.91,-86.39996 1.28,-142.78496 6.784,-221.30396"
     inkscape:connector-curvature="0"
     sodipodi:nodetypes="cccccc" />
  <text
     xml:space="preserve"
     style="font-style:normal;font-variant:normal;font-weight:normal;font-stretch:normal;font-size:20px;line-height:125%;font-family:'TeX Gyre Schola Math';-inkscape-font-specification:'TeX Gyre Schola Math';letter-spacing:0px;word-spacing:0px;fill:#000000;fill-opacity:1;stroke:none;stroke-width:1px;stroke-linecap:butt;stroke-linejoin:miter;stroke-opacity:1"
     x="378.27588"
     y="682.63794"
     id="text4243"
     sodipodi:linespacing="125%"><tspan
       sodipodi:role="line"
       id="tspan4245"
       x="378.27588"
       y="682.63794">RV</tspan></text>
  <text
     xml:space="preserve"
     style="font-style:normal;font-variant:normal;font-weight:normal;font-stretch:normal;font-size:20px;line-height:125%;font-family:'TeX Gyre Schola Math';-inkscape-font-specification:'TeX Gyre Schola Math';letter-spacing:0px;word-spacing:0px;fill:#000000;fill-opacity:1;stroke:none;stroke-width:1px;stroke-linecap:butt;stroke-linejoin:miter;stroke-opacity:1"
     x="747.34052"
     y="91.804993"
     id="text4247"
     sodipodi:linespacing="125%"
     transform="matrix(0.66121508,0.75019639,-0.75019639,0.66121508,0,0)"><tspan
       sodipodi:role="line"
       id="tspan4249"
       x="747.34052"
       y="91.804993">Septum</tspan></text>
  <path
     sodipodi:nodetypes="ccscc"
     inkscape:connector-curvature="0"
     d="m 207.76776,590.73799 c 10.193,38.58998 41.187,83.55308 98.294,108.48808 74.63201,33.5389 171.10701,48.7839 180.57301,37.1339 9.465,-11.6489 -44.414,-53.8799 -58.977,-88.101 -14.562,-34.22198 -14.562,-47.32798 -24.028,-57.52098"
     style="font-size:12px;opacity:0.98999999;fill:none;fill-opacity:1;fill-rule:evenodd;stroke:#000000;stroke-width:3.5;stroke-opacity:1;stroke-miterlimit:4;stroke-dasharray:none"
     id="path4251" />
  <path
     d="M 260.676,652.145 C 250.516,649.261 257.133,636.313 273.947,629.862 C 294.301,621.566 307.805,631.729 324.963,643.168 C 308.845,641.088 296.468,631.02 277.456,641.397 C 266.462,647.024 271.842,654.778 260.676,652.145 z "
     transform="matrix(-0.377592,0.925973,0.925973,0.377592,8.608642,5.534943)"
     style="font-size:12px;fill:#ffffff;fill-rule:evenodd;stroke:#000000;stroke-width:2.5;stroke-linejoin:round"
     id="mitral_valve_2" />
  <text
     xml:space="preserve"
     style="font-style:normal;font-variant:normal;font-weight:normal;font-stretch:normal;font-size:20px;line-height:125%;font-family:'TeX Gyre Schola Math';-inkscape-font-specification:'TeX Gyre Schola Math';letter-spacing:0px;word-spacing:0px;fill:#000000;fill-opacity:1;stroke:none;stroke-width:1px;stroke-linecap:butt;stroke-linejoin:miter;stroke-opacity:1"
     x="477.62067"
     y="812.36206"
     id="text4240"
     sodipodi:linespacing="125%"><tspan
       sodipodi:role="line"
       id="tspan4242"
       x="477.62067"
       y="812.36206">Endocardium</tspan></text>
  <text
     xml:space="preserve"
     style="font-style:normal;font-variant:normal;font-weight:normal;font-stretch:normal;font-size:20px;line-height:125%;font-family:'TeX Gyre Schola Math';-inkscape-font-specification:'TeX Gyre Schola Math';letter-spacing:0px;word-spacing:0px;fill:#000000;fill-opacity:1;stroke:none;stroke-width:1px;stroke-linecap:butt;stroke-linejoin:miter;stroke-opacity:1"
     x="565.01721"
     y="513.43103"
     id="text4244"
     sodipodi:linespacing="125%"><tspan
       sodipodi:role="line"
       id="tspan4246"
       x="565.01721"
       y="513.43103">Epicardium</tspan></text>
  <path
     style="fill:none;fill-rule:evenodd;stroke:#000000;stroke-width:4;stroke-linecap:butt;stroke-linejoin:miter;stroke-opacity:1;stroke-miterlimit:4;stroke-dasharray:4,4;stroke-dashoffset:0"
     d="m 525.68964,796.63793 0,-204.41378"
     id="path4248"
     inkscape:connector-curvature="0" />
  <path
     style="fill:none;fill-rule:evenodd;stroke:#000000;stroke-width:4;stroke-linecap:butt;stroke-linejoin:miter;stroke-opacity:1;stroke-miterlimit:4;stroke-dasharray:4,4;stroke-dashoffset:0"
     d="m 635.7586,517.5345 -54.05172,53.06896"
     id="path4250"
     inkscape:connector-curvature="0" />
  <text
     xml:space="preserve"
     style="font-style:normal;font-weight:normal;font-size:20px;line-height:125%;font-family:'TeX Gyre Schola Math';letter-spacing:0px;word-spacing:0px;fill:#000000;fill-opacity:1;stroke:none;stroke-width:1px;stroke-linecap:butt;stroke-linejoin:miter;stroke-opacity:1;-inkscape-font-specification:'TeX Gyre Schola Math';font-stretch:normal;font-variant:normal;"
     x="231.84482"
     y="614.82758"
     id="text4252"
     sodipodi:linespacing="125%"><tspan
       sodipodi:role="line"
       id="tspan4254"
       x="231.84482"
       y="614.82758">RA</tspan></text>
  <text
     xml:space="preserve"
     style="font-style:normal;font-variant:normal;font-weight:normal;font-stretch:normal;font-size:20px;line-height:125%;font-family:'TeX Gyre Schola Math';-inkscape-font-specification:'TeX Gyre Schola Math';letter-spacing:0px;word-spacing:0px;fill:#000000;fill-opacity:1;stroke:none;stroke-width:1px;stroke-linecap:butt;stroke-linejoin:miter;stroke-opacity:1"
     x="400.8793"
     y="470.50003"
     id="text4256"
     sodipodi:linespacing="125%"><tspan
       sodipodi:role="line"
       id="tspan4258"
       x="400.8793"
       y="470.50003">LA</tspan></text>
  <text
     xml:space="preserve"
     style="font-style:normal;font-variant:normal;font-weight:normal;font-stretch:normal;font-size:20px;line-height:125%;font-family:'TeX Gyre Schola Math';-inkscape-font-specification:'TeX Gyre Schola Math';letter-spacing:0px;word-spacing:0px;fill:#000000;fill-opacity:1;stroke:none;stroke-width:1px;stroke-linecap:butt;stroke-linejoin:miter;stroke-opacity:1"
     x="567.94824"
     y="365.20694"
     id="text4260"
     sodipodi:linespacing="125%"><tspan
       sodipodi:role="line"
       id="tspan4262"
       x="567.94824"
       y="365.20694">Mitral valve</tspan></text>
  <text
     xml:space="preserve"
     style="font-style:normal;font-variant:normal;font-weight:normal;font-stretch:normal;font-size:20px;line-height:125%;font-family:'TeX Gyre Schola Math';-inkscape-font-specification:'TeX Gyre Schola Math';letter-spacing:0px;word-spacing:0px;fill:#000000;fill-opacity:1;stroke:none;stroke-width:1px;stroke-linecap:butt;stroke-linejoin:miter;stroke-opacity:1"
     x="474.58615"
     y="293.46552"
     id="text4264"
     sodipodi:linespacing="125%"><tspan
       sodipodi:role="line"
       id="tspan4266"
       x="474.58615"
       y="293.46552">Aortic valve</tspan></text>
  <text
     xml:space="preserve"
     style="font-style:normal;font-variant:normal;font-weight:normal;font-stretch:normal;font-size:20px;line-height:125%;font-family:'TeX Gyre Schola Math';-inkscape-font-specification:'TeX Gyre Schola Math';letter-spacing:0px;word-spacing:0px;fill:#000000;fill-opacity:1;stroke:none;stroke-width:1px;stroke-linecap:butt;stroke-linejoin:miter;stroke-opacity:1"
     x="273.1207"
     y="810.39655"
     id="text4268"
     sodipodi:linespacing="125%"><tspan
       sodipodi:role="line"
       id="tspan4270"
       x="273.1207"
       y="810.39655">Pulmonary valve</tspan></text>
  <text
     xml:space="preserve"
     style="font-style:normal;font-variant:normal;font-weight:normal;font-stretch:normal;font-size:20px;line-height:125%;font-family:'TeX Gyre Schola Math';-inkscape-font-specification:'TeX Gyre Schola Math';letter-spacing:0px;word-spacing:0px;fill:#000000;fill-opacity:1;stroke:none;stroke-width:1px;stroke-linecap:butt;stroke-linejoin:miter;stroke-opacity:1"
     x="56.913788"
     y="684.60345"
     id="text4272"
     sodipodi:linespacing="125%"><tspan
       sodipodi:role="line"
       id="tspan4274"
       x="56.913788"
       y="684.60345">Tricuspid valve</tspan></text>
  <path
     inkscape:connector-curvature="0"
     id="path4276"
     d="M 612.87595,371.42572 479.77918,517.21224"
     style="fill:none;fill-rule:evenodd;stroke:#000000;stroke-width:4;stroke-linecap:butt;stroke-linejoin:miter;stroke-miterlimit:4;stroke-dasharray:4,4;stroke-dashoffset:0;stroke-opacity:1" />
  <path
     style="fill:none;fill-rule:evenodd;stroke:#000000;stroke-width:4;stroke-linecap:butt;stroke-linejoin:miter;stroke-miterlimit:4;stroke-dasharray:4,4;stroke-dashoffset:0;stroke-opacity:1"
     d="M 506.78528,297.65758 428.62847,538.89419"
     id="path4278"
     inkscape:connector-curvature="0" />
  <path
     inkscape:connector-curvature="0"
     id="path4280"
     d="M 282.43877,637.55902 126.21639,667.76859"
     style="fill:none;fill-rule:evenodd;stroke:#000000;stroke-width:4;stroke-linecap:butt;stroke-linejoin:miter;stroke-miterlimit:4;stroke-dasharray:4,4;stroke-dashoffset:0;stroke-opacity:1" />
  <path
     style="fill:none;fill-rule:evenodd;stroke:#000000;stroke-width:4;stroke-linecap:butt;stroke-linejoin:miter;stroke-miterlimit:4;stroke-dasharray:4,4;stroke-dashoffset:0;stroke-opacity:1"
     d="M 374.6518,570.91879 307.21024,797.30538"
     id="path4282"
     inkscape:connector-curvature="0" />
</svg>
