<?xml version="1.0" encoding="UTF-8" standalone="no"?>
<svg
   xmlns:dc="http://purl.org/dc/elements/1.1/"
   xmlns:cc="http://creativecommons.org/ns#"
   xmlns:rdf="http://www.w3.org/1999/02/22-rdf-syntax-ns#"
   xmlns:svg="http://www.w3.org/2000/svg"
   xmlns="http://www.w3.org/2000/svg"
   xmlns:xlink="http://www.w3.org/1999/xlink"
   xmlns:sodipodi="http://sodipodi.sourceforge.net/DTD/sodipodi-0.dtd"
   xmlns:inkscape="http://www.inkscape.org/namespaces/inkscape"
   version="1.0"
   width="308.28152"
   height="303.39871"
   viewBox="52 177 308.28152 303.39871"
   id="svg2"
   inkscape:version="0.91 r13725"
   sodipodi:docname="heart_anatomy.svg">
  <metadata
     id="metadata105">
    <rdf:RDF>
      <cc:Work
         rdf:about="">
        <dc:format>image/svg+xml</dc:format>
        <dc:type
           rdf:resource="http://purl.org/dc/dcmitype/StillImage" />
        <dc:title></dc:title>
      </cc:Work>
    </rdf:RDF>
  </metadata>
  <sodipodi:namedview
     pagecolor="#ffffff"
     bordercolor="#666666"
     borderopacity="1"
     objecttolerance="10"
     gridtolerance="10"
     guidetolerance="10"
     inkscape:pageopacity="0"
     inkscape:pageshadow="2"
     inkscape:window-width="2495"
     inkscape:window-height="1416"
     id="namedview103"
     showgrid="false"
     showguides="false"
     inkscape:zoom="1.0175439"
     inkscape:cx="-196.18651"
     inkscape:cy="82.560663"
     inkscape:window-x="65"
     inkscape:window-y="24"
     inkscape:window-maximized="1"
     inkscape:current-layer="svg2"
     fit-margin-top="0"
     fit-margin-left="0"
     fit-margin-right="0"
     fit-margin-bottom="0" />
  <defs
     id="defs668">
    <linearGradient
       x1="0"
       y1="0"
       x2="1"
       y2="0"
       id="linearGradient695"
       gradientUnits="objectBoundingBox"
       spreadMethod="pad">
      <stop
         style="stop-color:#ff0000;stop-opacity:1"
         offset="0"
         id="stop696" />
      <stop
         style="stop-color:#ffd700;stop-opacity:1"
         offset="1"
         id="stop697" />
    </linearGradient>
    <linearGradient
       x1="0"
       y1="0"
       x2="1"
       y2="0"
       id="linearGradient691"
       gradientUnits="objectBoundingBox"
       spreadMethod="pad">
      <stop
         style="stop-color:#000000;stop-opacity:1"
         offset="0"
         id="stop692" />
      <stop
         style="stop-color:#ffffff;stop-opacity:1"
         offset="1"
         id="stop693" />
    </linearGradient>
    <linearGradient
       x1="0"
       y1="1.5000001e-07"
       x2="1"
       y2="1.5000001e-07"
       id="linearGradient694"
       xlink:href="#linearGradient695"
       gradientUnits="objectBoundingBox"
       spreadMethod="pad" />
    <radialGradient
       cx="0.5"
       cy="0.50000018"
       r="0.5"
       fx="0.5"
       fy="0.50000018"
       id="radialGradient698"
       xlink:href="#linearGradient695"
       gradientUnits="objectBoundingBox"
       spreadMethod="pad" />
    <linearGradient
       x1="0"
       y1="0"
       x2="1"
       y2="0"
       id="linearGradient567"
       xlink:href="#linearGradient695"
       gradientUnits="objectBoundingBox"
       spreadMethod="pad" />
  </defs>
  <text
     x="77.76368"
     y="-18.160614"
     style="font-weight:normal;font-size:20px;font-family:'Nimbus Sans L';text-anchor:middle;stroke-width:1pt"
     id="text680">
    <tspan
       x="77.76368"
       y="-18.160614"
       id="tspan697">Superior</tspan>
    <tspan
       x="77.76368"
       y="1.8393831"
       id="tspan699">Vena Cava</tspan>
  </text>
  <text
     x="-237.45357"
     y="122.98363"
     style="font-weight:normal;font-size:20px;font-family:'Nimbus Sans L';text-anchor:middle;stroke-width:1pt"
     id="text704">
    <tspan
       id="tspan705">Aorta</tspan>
  </text>
  <text
     x="-79.95433"
     y="98.809151"
     style="font-weight:normal;font-size:20px;font-family:'Nimbus Sans L';text-anchor:middle;stroke-width:1pt"
     id="text707">
    <tspan
       id="tspan708">Pulmonary</tspan>
    <tspan
       x="-79.95433"
       y="118.80916"
       id="tspan712">Artery</tspan>
  </text>
  <text
     x="785.41101"
     y="297.49463"
     style="font-weight:normal;font-size:20px;font-family:'Nimbus Sans L';text-anchor:middle;stroke-width:1pt"
     id="text714">
    <tspan
       id="tspan715">Pulmonary</tspan>
    <tspan
       x="785.41101"
       y="317.49463"
       id="tspan717">Vein</tspan>
  </text>
  <text
     x="-283.85916"
     y="588.91797"
     style="font-weight:normal;font-size:20px;font-family:'Nimbus Sans L';text-anchor:middle;stroke-width:1pt"
     id="text719">
    <tspan
       id="tspan720">Right</tspan>
    <tspan
       x="-283.85916"
       y="608.91797"
       id="tspan722">Ventricle</tspan>
  </text>
  <text
     x="-144.94695"
     y="416.44174"
     style="font-weight:normal;font-size:20px;font-family:'Nimbus Sans L';text-anchor:middle;stroke-width:1pt"
     id="text724">
    <tspan
       id="tspan725">Left</tspan>
    <tspan
       x="-144.94695"
       y="436.44174"
       id="tspan727">Ventricle</tspan>
  </text>
  <text
     x="-242.07495"
     y="420.1106"
     style="font-weight:normal;font-size:20px;font-family:'Nimbus Sans L';text-anchor:middle;stroke-width:1pt"
     id="text729">
    <tspan
       id="tspan730">Right</tspan>
    <tspan
       x="-242.07495"
       y="440.1106"
       id="tspan732">Atrium</tspan>
  </text>
  <text
     x="781.49829"
     y="204.24255"
     style="font-weight:normal;font-size:20px;font-family:'Nimbus Sans L';text-anchor:middle;stroke-width:1.25;stroke-dashoffset:0"
     id="text734">
    <tspan
       style="stroke-dashoffset:0"
       id="tspan735">Left</tspan>
    <tspan
       x="781.49829"
       y="224.24255"
       style="stroke-dashoffset:0"
       id="tspan737">Atrium</tspan>
  </text>
  <text
     x="-260.12485"
     y="648.86908"
     style="font-weight:normal;font-size:20px;font-family:'Nimbus Sans L';text-anchor:middle;stroke-width:1pt"
     id="text739">
    <tspan
       id="tspan740">Inferior Vena Cava</tspan>
  </text>
  <text
     x="791.61499"
     y="398.8924"
     style="font-weight:normal;font-size:20px;font-family:'Nimbus Sans L';text-anchor:middle;stroke-width:1pt"
     id="text742">
    <tspan
       id="tspan743">Mitral</tspan>
    <tspan
       x="791.61499"
       y="418.8924"
       id="tspan745">Valve</tspan>
  </text>
  <text
     x="-89.383873"
     y="280.2847"
     style="font-weight:normal;font-size:20px;font-family:'Nimbus Sans L';text-anchor:middle;stroke-width:1pt"
     id="text747">
    <tspan
       id="tspan748">Aortic</tspan>
    <tspan
       x="-89.383873"
       y="300.2847"
       id="tspan750">Valve</tspan>
  </text>
  <text
     x="-241.19894"
     y="486.05856"
     style="font-weight:normal;font-size:20px;font-family:'Nimbus Sans L';text-anchor:middle;stroke-width:1pt"
     id="text752">
    <tspan
       id="tspan753">Tricuspid</tspan>
    <tspan
       x="-241.19894"
       y="506.05859"
       id="tspan755">Valve</tspan>
  </text>
  <text
     x="-200.34677"
     y="434.68842"
     style="font-weight:normal;font-size:20px;font-family:'Nimbus Sans L';text-anchor:middle;stroke-width:1pt"
     id="text757">
    <tspan
       id="tspan758">Pulmonary</tspan>
    <tspan
       x="-200.34677"
       y="454.68842"
       id="tspan760">Valve</tspan>
  </text>
  <path
     d="m 956.90268,492.37731 -151.52,1.456"
     style="font-size:12px;fill:none;fill-rule:evenodd;stroke:#000000;stroke-width:2.5;stroke-dasharray:2.5, 2.5;stroke-dashoffset:0"
     id="path764"
     inkscape:connector-curvature="0" />
  <path
     d="m -90.476755,330.82265 -210.945005,-45.88"
     style="font-size:12px;fill:none;fill-rule:evenodd;stroke:#000000;stroke-width:2.5;stroke-dasharray:2.5, 2.5;stroke-dashoffset:0"
     id="path765"
     inkscape:connector-curvature="0" />
  <path
     d="m -111.06535,206.56333 2.7,38.406 -6.001,0.6 10.802,14.103 6.001002,-16.503 -5.701002,0.6 -3.3,-37.807 -4.501,0.601 z"
     style="font-size:12px;fill:#ffffff;fill-rule:evenodd;stroke-width:1.25"
     id="path766"
     inkscape:connector-curvature="0" />
  <path
     d="m -156.53758,614.63087 5.08297,-38.1638 5.999,0.61975 -7.74339,-15.98806 -9.19887,14.95801 5.70513,0.55938 -4.37471,37.69777 4.52987,0.31695 z"
     style="font-size:12px;fill:#ffffff;fill-rule:evenodd;stroke-width:1.25"
     id="path767"
     inkscape:connector-curvature="0" />
  <path
     d="m -87.308494,573.4014 5.082968,-38.1638 5.998995,0.61975 -7.743385,-15.98806 -9.198869,14.95801 5.705131,0.55938 -4.374714,37.69777 4.529874,0.31695 z"
     style="font-size:12px;fill:#ffffff;fill-rule:evenodd;stroke-width:1.25"
     id="path768"
     inkscape:connector-curvature="0" />
  <path
     d="m -57.929838,569.22992 20.587738,32.53395 -4.999025,3.37369 16.197578,7.29498 -2.541526,-17.37533 -4.734893,3.23144 -20.831981,-31.72207 -3.677891,2.66334 z"
     style="font-size:12px;fill:#ffffff;fill-rule:evenodd;stroke-width:1.25"
     id="path769"
     inkscape:connector-curvature="0" />
  <path
     d="m -458.96521,548.95584 195.197,-56.013"
     style="font-size:12px;fill:none;fill-rule:evenodd;stroke:#000000;stroke-width:2.5;stroke-dasharray:2.5, 2.5;stroke-dashoffset:0"
     id="path762"
     inkscape:connector-curvature="0" />
  <path
     d="m 823.33171,270.49746 4.93961,38.18259 -5.95568,0.94964 11.60764,13.44769 5.0264,-16.82546 -5.65619,0.93211 -5.50359,-37.54955 -4.45819,0.86298 z"
     style="font-size:12px;fill:#ffffff;fill-rule:evenodd;stroke-width:1.25"
     id="path770"
     inkscape:connector-curvature="0" />
  <path
     d="m -243.01179,557.72067 121.361,-44.131"
     style="font-size:12px;fill:none;fill-rule:evenodd;stroke:#000000;stroke-width:2.5;stroke-dasharray:2.5, 2.5;stroke-dashoffset:0"
     id="path763"
     inkscape:connector-curvature="0" />
  <path
     d="m -186.37912,160.71947 -38.19428,4.84848 -0.93543,-5.95794 -13.47536,11.57551 16.81343,5.06655 -0.91861,-5.6584 37.5626,-5.41396 -0.85235,-4.46024 z"
     style="font-size:12px;fill:#ffffff;fill-rule:evenodd;stroke-width:1.25"
     id="path771"
     inkscape:connector-curvature="0" />
  <path
     d="m -186.29279,338.45337 38.41949,2.50108 -0.2143,6.02711 15.43024,-8.80261 -15.5436,-8.17055 -0.17387,5.72985 -37.90683,-1.82581 -0.0111,4.54093 z"
     style="font-size:12px;fill:#ffffff;fill-rule:evenodd;stroke-width:1.25"
     id="path772"
     inkscape:connector-curvature="0" />
  <path
     d="m -191.15621,405.91861 38.41949,2.50107 -0.2143,6.02712 15.43024,-8.80261 -15.5436,-8.17056 -0.17386,5.72986 -37.90683,-1.82582 -0.0111,4.54094 z"
     style="font-size:12px;fill:#ffffff;fill-rule:evenodd;stroke-width:1.25"
     id="path773"
     inkscape:connector-curvature="0" />
  <path
     d="m 901.18289,208.76526 -38.40895,2.65797 -0.59343,-6.00166 -14.11483,10.78657 16.49644,6.01906 -0.59376,-5.70166 37.81061,-3.25863 -0.59608,-4.50165 z"
     style="font-size:12px;fill:#ffffff;fill-rule:evenodd;stroke-width:1.25"
     id="path774"
     inkscape:connector-curvature="0" />
  <path
     d="m -111.4077,610.68045 -0.25602,-38.49993 6.02698,-0.21776 -9.88475,-14.7604 -7.03672,16.08867 5.72759,-0.23681 0.89284,37.94023 4.53008,-0.314 z"
     style="font-size:12px;fill:#ffffff;fill-rule:evenodd;stroke-width:1.25"
     id="path775"
     inkscape:connector-curvature="0" />
  <path
     d="m -134.20322,557.6319 -31.45687,-22.19857 3.33059,-5.02784 -17.75593,-0.55227 8.98786,15.08574 3.14085,-4.79546 31.37236,21.35497 2.38114,-3.86657 z"
     style="font-size:12px;fill:#ffffff;fill-rule:evenodd;stroke-width:1.25"
     id="path776"
     inkscape:connector-curvature="0" />
  <path
     d="m -94.420098,532.81233 -6.250232,-37.99006 5.91949,-1.15396 -12.06339,-13.04041 -4.44461,16.98842 5.62078,-1.12614 6.792099,37.338 4.425863,-1.01585 z"
     style="font-size:12px;fill:#ffffff;fill-rule:evenodd;stroke-width:1.25"
     id="path777"
     inkscape:connector-curvature="0" />
  <path
     d="m 89.628174,128.50539 38.479116,-1.29268 0.37998,6.01894 14.48888,-10.27866 -16.27235,-6.60093 0.39097,5.71914 -37.902476,1.91421 0.43588,4.51998 z"
     style="font-size:12px;fill:#ffffff;fill-rule:evenodd;stroke-width:1.25"
     id="path867"
     inkscape:connector-curvature="0" />
  <path
     d="m -100.96663,241.60053 -38.1314,-5.32045 0.65708,-5.99502 -16.03594,7.6437 14.90044,9.29181 0.59489,-5.70154 37.66979,4.60931 0.34514,-4.52781 z"
     style="font-size:12px;fill:#ffffff;fill-rule:evenodd;stroke-width:1.25"
     id="path868"
     inkscape:connector-curvature="0" />
  <path
     d="m -145.44283,163.18415 -17.55969,-34.26322 5.28376,-2.90755 -15.4711,-8.73057 0.95902,17.534 5.00784,-2.78979 17.8764,33.47677 3.90377,-2.31964 z"
     style="font-size:12px;fill:#ffffff;fill-rule:evenodd;stroke-width:1.25"
     id="path869"
     inkscape:connector-curvature="0" />
  <path
     d="m -209.97241,170.99012 19.08477,-33.43773 5.32363,2.8339 -1.1503,-17.72723 -14.1559,10.39094 5.07415,2.66729 -18.25314,33.27284 4.07679,1.99999 z"
     style="font-size:12px;fill:#ffffff;fill-rule:evenodd;stroke-width:1.25"
     id="path870"
     inkscape:connector-curvature="0" />
  <path
     d="m -25.9723,150.31229 0.540698,-38.497 6.030205,-0.093 -9.57721,-14.961794 -7.368137,15.939634 5.731268,-0.11824 0.107569,37.95061 4.535607,-0.2202 z"
     style="font-size:12px;fill:#ffffff;fill-rule:evenodd;stroke-width:1.25"
     id="path871"
     inkscape:connector-curvature="0" />
  <path
     d="m -32.865106,336.02249 c 9.84,1.035 54.379,83.381 51.789,149.671 -2.589,66.291 -16.0549997,108.758 -37.288,102.025 -21.234,-6.732 -73.542,-102.542 -100.990004,-132.58 -27.448,-30.038 -64.219,-67.845 -64.219,-67.845 l 150.708004,-51.271 z"
     style="font-size:12px;fill:#7f7fe6;fill-rule:evenodd;stroke:#000000;stroke-width:1.25"
     id="left_ventricle-3"
     inkscape:connector-curvature="0" />
  <g
     id="g4266"
     transform="matrix(0.48311224,0,0,0.48311224,26.32067,82.895786)">
    <path
       id="left_ventricle"
       style="font-size:12px;fill:#ffffff;fill-opacity:1;fill-rule:evenodd;stroke:#000000;stroke-width:1.25"
       d="m 508.573,484.232 c 9.84,1.035 54.379,83.381 51.789,149.671 -2.589,66.291 -16.055,108.758 -37.288,102.025 -21.234,-6.732 -73.542,-102.542 -100.99,-132.58 -27.448,-30.038 -64.219,-67.845 -64.219,-67.845 l 150.708,-51.271 z"
       inkscape:connector-curvature="0" />
    <path
       id="inferior_vena_cava"
       style="font-size:12px;fill:#c8c8c8;fill-opacity:1;fill-rule:evenodd;stroke:#000000;stroke-width:2.5"
       transform="translate(-10.61289,-3.411667)"
       d="m 219.069,653.065 -8.048,113.913 c 3.625,14.501 14.501,25.376 31.592,26.412 17.09,1.037 26.412,-9.839 33.663,-18.643 l 7.531,-79.214"
       inkscape:connector-curvature="0" />
    <path
       transform="translate(6.239319,58.23346)"
       id="pulmonary_vein_2"
       style="font-size:12px;fill:#c8c8c8;fill-opacity:1;fill-rule:evenodd;stroke:#000000;stroke-width:2.5"
       d="m 132.938,385.437 c 21.238,-0.351 155.63,8.159 215.943,6.599 60.313,-1.56 204.385,-19.119 228.822,-15.999 l 0.52,48.875 c -22.357,1.04 -67.641,2.48 -78.038,23.798 -14.559,33.796 -90.471,-13.518 -129.466,-12.478 -43.673,1.148 -208.347,3.221 -237.261,-0.361 -5.645,-5.438 -12.613,-11.408 -11.959,-25.477 0.148,-16.105 5.719,-20.277 11.439,-24.957 z"
       inkscape:connector-curvature="0" />
    <path
       sodipodi:nodetypes="ccccccc"
       inkscape:connector-curvature="0"
       d="m 375.60601,542.12025 c 13.519,14.558 38.357,45.681 54.71,56.372 19.658,12.378 46.47299,41.85703 56.79199,65.53003 13.106,28.39699 30.581,60.43399 42.231,50.96899 11.65001,-9.466 19.65901,-50.23999 11.65001,-88.10099 C 536.041,604.40225 519.348,587.83425 513.319,548.98125 c -6.552,-40.047 1.458,-56.793 -1.455,-67.715"
       style="font-size:12px;opacity:0.98999999;fill:#ff9191;fill-opacity:1;fill-rule:evenodd;stroke:#000000;stroke-width:3.5;stroke-miterlimit:4;stroke-dasharray:none;stroke-opacity:1"
       id="path4233" />
    <path
       id="pulmonary_vein_1"
       style="font-size:12px;fill:#c8c8c8;fill-opacity:1;fill-rule:evenodd;stroke:#000000;stroke-width:2.5"
       d="m 154.739,383.037 c 21.238,-0.351 160.866,11.079 221.179,9.519 60.313,-1.56 162.222,-14.559 186.659,-11.439 l 0.52,48.875 c -22.357,1.04 -52.515,-2.6 -62.912,18.718 -14.559,33.796 -90.471,-13.518 -129.466,-12.478 -43.673,1.148 -186.546,0.821 -215.46,-2.761 -5.645,-6.478 -12.093,-9.328 -11.959,-25.477 -0.386,-16.101 6.239,-19.237 11.439,-24.957 z"
       inkscape:connector-curvature="0" />
    <path
       inkscape:connector-curvature="0"
       id="left_atrium"
       style="font-size:12px;fill:#ff9191;fill-opacity:1;fill-rule:evenodd;stroke-width:1pt"
       d="m 365.6277,434.67422 c 7.658,-40.845 77.365,-46.265 102.024,-31.072 33.345,20.543 52.308,82.344 52.308,82.344 0,0 -21.894,-2.688 -33.145,13.466 -8.948,12.848 -9.84,42.467 -9.84,42.467 0,0 -7.251,-29.002 -22.788,-34.181 -15.536,-5.179 -28.484,0.518 -39.36,4.143 -10.358,-9.322 -53.97,-51.722 -49.199,-77.167 z" />
    <path
       id="right_ventricle"
       style="font-size:12px;fill:#ff9191;fill-opacity:1;fill-rule:evenodd;stroke-width:1.25"
       d="m 353.723,537.057 c 40.395,25.377 63.182,65.255 92.184,104.615 29.003,39.36 65.255,95.292 54.379,105.132 -10.875,9.84 -93.424,5.435 -160.547,-17.608 -53.395,-18.315 -98.918,-63.701 -98.918,-63.701 L 353.723,537.057 Z"
       inkscape:connector-curvature="0" />
    <path
       id="pulmonary_artery_2"
       style="font-size:12px;fill:#c8c8c8;fill-opacity:1;fill-rule:evenodd;stroke:#000000;stroke-width:2.5"
       transform="translate(-0.517883,0.517853)"
       d="m 296.236,340.775 c -33.145,-1.036 -118.458,-11.945 -136.229,-13.981 -6.413,2.052 -12.239,9.102 -12.479,22.793 -0.188,11.149 6.586,16.062 12.479,20.714 0,0 103.601,11.905 135.193,16.048"
       inkscape:connector-curvature="0" />
    <path
       id="right_atrium"
       style="font-size:12px;fill:#ff9191;fill-opacity:1;fill-rule:evenodd;stroke-width:1pt"
       d="m 215.962,423.12 c 0.518,15.537 -26.883,124.34 -23.823,153.297 6.733,64.219 59.04,105.651 68.362,110.83 2.072,-6.733 3.108,-39.361 21.752,-48.165 18.644,-8.804 41.949,4.143 41.949,4.143 0,0 -15.018,-19.161 -15.018,-36.253 0,-17.089 13.464,-30.037 19.161,-35.734 1.036,-13.983 4.143,-57.486 -6.733,-88.56 -10.875,-31.074 -43.502,-68.88 -43.502,-68.88 l -62.148,9.322 z"
       inkscape:connector-curvature="0" />
    <path
       id="aorta"
       style="font-size:12px;fill:#c8c8c8;fill-opacity:1;fill-rule:evenodd;stroke:#000000;stroke-width:2.5"
       d="m 434.002,525.693 c -23.779,-40.369 -64.762,-55.642 -92.191,-125.36 -14.929,-38.676 20.869,-94.286 60.076,-66.291 23.93,17.457 7.724,58.783 12.385,56.712 l 54.099,-4.625 c 0,-5.179 1.359,-13.245 -11.588,-65.552 -8.312,-32.916 -25.895,-35.735 -21.752,-51.79 4.143,-16.055 16.055,-31.073 16.055,-31.073 l -26.93,-20.716 c 0,0 -20.198,48.164 -28.485,47.128 -8.286,-1.036 4.144,-48.164 4.144,-48.164 l -37.289,-3.107 c 0,0 5.18,49.2 -5.696,56.969 -10.876,7.768 -34.699,-49.201 -34.699,-49.201 l -28.485,17.091 c 0,0 20.198,23.822 15.537,45.574 -4.661,21.752 -36.252,42.468 -32.627,117.045 2.793,57.05 49.183,97.184 66.809,120.152 17.09,21.751 55.867,67.197 67.889,61.174 -4.731,-23.903 3.471,-50.354 22.748,-55.966 z"
       inkscape:connector-curvature="0" />
    <path
       id="path592"
       style="font-size:12px;fill:#323232;fill-opacity:0.98113248;fill-rule:evenodd;stroke:#000000;stroke-width:2.04364991"
       transform="matrix(0.578761,-0.718335,1.263224,1.017777,-506.8972,229.5155)"
       d="m 393.806,563.203 c 0,12.917 -17.683,14.221 -39.044,14.736 -18.481,0.446 -28.579,-7.251 -28.579,-20.167 0,-12.915 9.404,-21.648 33.553,-21.648 22.457,0 34.07,14.165 34.07,27.079 z"
       inkscape:connector-curvature="0" />
    <path
       id="superior_vena_cava"
       style="font-size:12px;fill:#c8c8c8;fill-opacity:1;fill-rule:evenodd;stroke:#000000;stroke-width:2.5"
       d="m 208.712,427.781 c 5.696,-18.644 -4.374,-182.661 -4.374,-182.661 0,0 6.215,-15.02 31.592,-13.984 25.376,1.036 30.038,17.609 30.038,17.609 l 13.177,173.339"
       inkscape:connector-curvature="0" />
    <ellipse
       id="vena_cava_in_2"
       style="font-size:12px;fill:#323232;fill-opacity:0.98113248;fill-rule:evenodd;stroke:#000000;stroke-width:2.1821599"
       transform="matrix(1.049425,-0.353733,0.378566,1.123099,-181.7923,31.88649)"
       ry="21.057648"
       rx="31.456482"
       cy="434.41135"
       cx="250.87192" />
    <path
       id="heart"
       style="font-size:12px;opacity:0.98999999;fill:#cf0003;fill-opacity:1;fill-rule:evenodd;stroke:#000000;stroke-width:2.5;stroke-opacity:1"
       d="m 389.377,422.836 4.44,-18.242 c 23.757,-11.901 49.026,-11.234 66.296,-5.079 53.134,19.666 58.447,76.218 73.988,90.374 68.684,64.06 81.761,252.131 26.561,275.398 -115.047,48.187 -308.531,-35.147 -358.64,-118.115 -52.91,-86.4 1.28,-142.785 6.784,-221.304 l 5.404,21.492 c 1.548,83.46 -20.531,62.193 -7.425,143.378 10.193,38.59 41.187,83.553 98.294,108.488 74.632,33.539 171.107,48.784 180.573,37.134 9.465,-11.649 -44.414,-53.88 -58.977,-88.101 -14.562,-34.222 -14.562,-47.328 -24.028,-57.521 -9.465,-10.194 -18.724,-25.692 -27.043,-32.972 l 0.002,-14.663 c 13.519,14.558 38.357,45.681 54.71,56.372 19.658,12.378 46.473,41.857 56.792,65.53 13.106,28.397 30.581,60.434 42.231,50.969 11.65,-9.466 19.659,-50.24 11.65,-88.101 -4.948,-22.488 -21.641,-39.056 -27.67,-77.909 -6.552,-40.047 1.458,-56.793 -1.455,-67.715 -2.912,-10.921 -19.659,-51.696 -48.056,-66.258 -26.845,-12.39 -53.316,-3.349 -74.431,6.845 z"
       inkscape:connector-curvature="0" />
    <path
       transform="translate(0,0.517853)"
       id="pulmonary_artery_1"
       style="font-size:12px;fill:#c8c8c8;fill-opacity:1;fill-rule:evenodd;stroke:#000000;stroke-width:2.5;stroke-opacity:1"
       d="m 385.834,569.669 c -13.554,-61.69 -5.182,-136.71 22.266,-179.694 27.449,-42.986 132.582,-31.074 132.582,-31.074 l 0,-36.771 c -19.68,-1.553 -76.748,-3.827 -113.418,6.733 -45.732,12.942 -64.738,-12.43 -82.346,23.305 -11.618,23.235 -3.625,42.468 -8.804,61.112 -5.179,18.644 -19.679,123.259 -13.984,159.511 20.262,-12.548 41.928,-17.754 63.704,-3.122 z"
       inkscape:connector-curvature="0" />
    <ellipse
       transform="matrix(0.849057,0,0,0.935062,76.60906,21.92059)"
       id="path564"
       style="font-size:12px;fill:#323232;fill-opacity:0.98113248;fill-rule:evenodd;stroke:#000000;stroke-width:2.80576992"
       ry="19.938919"
       rx="13.724213"
       cy="341.55151"
       cx="548.70959" />
    <path
       id="tricuspid_valve_1"
       style="font-size:12px;fill:#ffffff;fill-rule:evenodd;stroke:#000000;stroke-width:2.5;stroke-linejoin:round"
       d="m 259.451,669.164 c -10.19,-2.778 -8.152,-26.807 16.118,-36.395 20.26,-8.523 32.236,-1.04 49.394,10.399 -16.118,-2.08 -24.801,-8.027 -43.674,2.6 -17.398,10.315 -13.903,25.039 -21.838,23.396 z"
       inkscape:connector-curvature="0" />
    <path
       id="tricuspid_valve_2"
       style="font-size:12px;fill:#ffffff;fill-rule:evenodd;stroke:#000000;stroke-width:2.5;stroke-linejoin:round"
       transform="matrix(0.339116,0.940745,0.940745,-0.339116,-389.9721,555.9836)"
       d="m 262.508,666.93 c -10.509,-1.056 -11.209,-24.573 13.061,-34.161 20.26,-8.523 32.236,-1.04 49.394,10.399 -16.118,-2.08 -27.11,-8.3 -45.983,2.327 -17.398,10.315 -6.269,21.989 -16.472,21.435 z"
       inkscape:connector-curvature="0" />
    <path
       id="mitral_valve_1"
       style="font-size:12px;fill:#ffffff;fill-rule:evenodd;stroke:#000000;stroke-width:2.5;stroke-linejoin:round"
       transform="matrix(0.743056,0.669229,-0.669229,0.743056,670.4603,-146.6114)"
       d="m 261.127,654.534 c -10.335,-2.176 -2.869,-14.386 13.359,-22.189 14.56,-7.144 33.319,-0.616 50.477,10.823 -16.118,-2.08 -29.593,-7.91 -44.216,-1.11 -18.262,8.696 -4.406,16.199 -19.62,12.476 z"
       inkscape:connector-curvature="0" />
    <path
       id="path591"
       style="font-size:12px;fill:#323232;fill-opacity:0.98113248;fill-rule:evenodd;stroke:#000000;stroke-width:2.04364991"
       transform="matrix(0.92248,0,0,1.622222,21.03153,-346.8703)"
       d="m 394.854,561.9 c 0,12.916 -11.611,13.908 -32.972,14.423 -18.481,0.446 -36.918,-3.43 -36.918,-16.346 0,-12.915 9.951,-33.012 34.1,-33.012 22.457,0 35.79,22.02 35.79,34.935 z"
       inkscape:connector-curvature="0" />
    <path
       id="pulmonary_valve_1"
       style="font-size:12px;fill:#ffffff;fill-rule:evenodd;stroke:#000000;stroke-width:3.95160007;stroke-linejoin:round"
       transform="matrix(0.205976,-0.612018,-0.568278,-0.254675,649.0895,906.7903)"
       d="m 288.941,683.295 c -38.406,-10.432 -32.186,-40.278 -14.794,-44.399 14.392,-2.815 45.759,9.631 54.691,34.322 -11.833,-9.639 -22.822,-15.403 -33.127,-8.429 -13.548,8.23 5.692,21.869 -6.77,18.506 z"
       inkscape:connector-curvature="0" />
    <path
       id="pulmonary_valve_2"
       style="font-size:12px;fill:#ffffff;fill-rule:evenodd;stroke:#000000;stroke-width:3.95160007;stroke-linejoin:round"
       transform="matrix(-0.205976,-0.612018,0.568278,-0.254675,57.71602,908.3502)"
       d="m 273.031,676.614 c -10.099,-2.917 -23.122,-23.269 -2.091,-36.136 13.091,-7.634 48.966,8.049 57.898,32.74 -11.833,-9.639 -19.793,-12.475 -36.487,-10.561 -15.08,2.248 -7.016,17.77 -19.32,13.957 z"
       inkscape:connector-curvature="0" />
    <path
       id="aortic_valve_1"
       style="font-size:12px;fill:#ffffff;fill-rule:evenodd;stroke:#000000;stroke-width:3.95160007;stroke-linejoin:round"
       transform="matrix(-0.334885,-0.552127,-0.561135,0.27005,874.679,543.3607)"
       d="m 286.864,677.122 c -33.819,-2.977 -30.109,-34.105 -12.717,-38.226 14.392,-2.815 45.759,9.631 54.691,34.322 -11.833,-9.639 -25.656,-19.271 -35.961,-12.297 -13.548,8.23 6.963,17.604 -6.013,16.201 z"
       inkscape:connector-curvature="0" />
    <path
       id="aortic_valve_2"
       style="font-size:12px;fill:#ffffff;fill-rule:evenodd;stroke:#000000;stroke-width:3.95160007;stroke-linejoin:round"
       transform="matrix(-0.600568,-0.237298,0.171871,-0.598548,491.3536,993.7164)"
       d="m 278.697,675.236 c -13.209,-1.684 -22.676,-21.708 -1.645,-34.575 13.091,-7.634 42.854,7.866 51.786,32.557 -11.833,-9.639 -15.682,-13.236 -32.376,-11.322 -15.08,2.248 -4.928,15.398 -17.765,13.34 z"
       inkscape:connector-curvature="0" />
    <ellipse
       id="vena_cava_in_1"
       style="font-size:12px;fill:#323232;fill-opacity:0.98113248;fill-rule:evenodd;stroke:#000000;stroke-width:2.26296997"
       transform="matrix(0.717389,-0.744054,0.95079,0.71512,-339.4749,428.6958)"
       ry="21.057648"
       rx="31.456482"
       cy="434.41135"
       cx="250.87192" />
    <ellipse
       id="path597"
       style="font-size:12px;fill:#323232;fill-opacity:0.98113248;fill-rule:evenodd;stroke:#000000;stroke-width:2.81170011"
       transform="matrix(0.945601,0.07752258,-0.06628828,0.83062,34.12192,2.938736)"
       ry="12.478638"
       rx="20.277725"
       cy="216.81569"
       cx="382.15723" />
    <ellipse
       id="path598"
       style="font-size:12px;fill:#323232;fill-opacity:0.98113248;fill-rule:evenodd;stroke:#000000;stroke-width:2.99218011"
       transform="matrix(0.732703,0.515286,-0.464454,0.626108,260.8245,-108.0556)"
       ry="12.478638"
       rx="20.277725"
       cy="216.81569"
       cx="382.15723" />
    <ellipse
       id="path599"
       style="font-size:12px;fill:#323232;fill-opacity:0.98113248;fill-rule:evenodd;stroke:#000000;stroke-width:3.05806994"
       transform="matrix(0.740708,-0.430883,0.327749,0.711617,-47.10216,238.3697)"
       ry="12.478638"
       rx="20.277725"
       cy="216.81569"
       cx="382.15723" />
    <ellipse
       id="path602"
       style="font-size:12px;fill:#323232;fill-opacity:0.98113248;fill-rule:evenodd;stroke:#000000;stroke-width:2.53917003"
       transform="matrix(1,0,0,0.969388,-7.799148,12.65858)"
       ry="25.477158"
       rx="15.078308"
       cy="405.03461"
       cx="571.41608" />
    <ellipse
       id="path603"
       style="font-size:12px;fill:#323232;fill-opacity:0.98113248;fill-rule:evenodd;stroke:#000000;stroke-width:2.53917003"
       transform="matrix(1,0,0,0.969388,11.3264,66.41187)"
       ry="25.477158"
       rx="15.078308"
       cy="405.03461"
       cx="571.41608" />
    <ellipse
       id="path604"
       style="font-size:12px;fill:#323232;fill-opacity:0.98113248;fill-rule:evenodd;stroke:#000000;stroke-width:2.02863002"
       transform="matrix(1.145182,1.541563,-0.876179,0.146717,162.2962,-494.4513)"
       ry="25.477158"
       rx="15.078308"
       cy="405.03461"
       cx="571.41608" />
    <text
       sodipodi:linespacing="125%"
       id="text4396"
       y="595.66382"
       x="466.23276"
       style="font-style:normal;font-variant:normal;font-weight:normal;font-stretch:normal;font-size:20px;line-height:125%;font-family:'TeX Gyre Schola Math';-inkscape-font-specification:'TeX Gyre Schola Math';letter-spacing:0px;word-spacing:0px;fill:#000000;fill-opacity:1;stroke:none;stroke-width:1px;stroke-linecap:butt;stroke-linejoin:miter;stroke-opacity:1"
       xml:space="preserve"><tspan
         y="595.66382"
         x="466.23276"
         id="tspan4398"
         sodipodi:role="line">LV</tspan></text>
    <path
       sodipodi:nodetypes="cccccc"
       inkscape:connector-curvature="0"
       d="m 393.817,405.61124 c 23.757,-11.901 49.026,-11.234 66.296,-5.079 53.134,19.666 58.447,76.218 73.988,90.374 68.684,64.06 81.761,252.13086 26.561,275.39786 -115.047,48.187 -308.531,-35.147 -358.64,-118.1149 -52.91,-86.39996 1.28,-142.78496 6.784,-221.30396"
       style="font-size:12px;opacity:0.98999999;fill:none;fill-opacity:1;fill-rule:evenodd;stroke:#000000;stroke-width:3.5;stroke-miterlimit:4;stroke-dasharray:none;stroke-opacity:1"
       id="path4241" />
    <text
       sodipodi:linespacing="125%"
       id="text4243"
       y="682.63794"
       x="378.27588"
       style="font-style:normal;font-variant:normal;font-weight:normal;font-stretch:normal;font-size:20px;line-height:125%;font-family:'TeX Gyre Schola Math';-inkscape-font-specification:'TeX Gyre Schola Math';letter-spacing:0px;word-spacing:0px;fill:#000000;fill-opacity:1;stroke:none;stroke-width:1px;stroke-linecap:butt;stroke-linejoin:miter;stroke-opacity:1"
       xml:space="preserve"><tspan
         y="682.63794"
         x="378.27588"
         id="tspan4245"
         sodipodi:role="line">RV</tspan></text>
    <text
       transform="matrix(0.66121508,0.75019639,-0.75019639,0.66121508,0,0)"
       sodipodi:linespacing="125%"
       id="text4247"
       y="91.804993"
       x="747.34052"
       style="font-style:normal;font-variant:normal;font-weight:normal;font-stretch:normal;font-size:20px;line-height:125%;font-family:'TeX Gyre Schola Math';-inkscape-font-specification:'TeX Gyre Schola Math';letter-spacing:0px;word-spacing:0px;fill:#000000;fill-opacity:1;stroke:none;stroke-width:1px;stroke-linecap:butt;stroke-linejoin:miter;stroke-opacity:1"
       xml:space="preserve"><tspan
         y="91.804993"
         x="747.34052"
         id="tspan4249"
         sodipodi:role="line">Septum</tspan></text>
    <path
       id="path4251"
       style="font-size:12px;opacity:0.98999999;fill:none;fill-opacity:1;fill-rule:evenodd;stroke:#000000;stroke-width:3.5;stroke-miterlimit:4;stroke-dasharray:none;stroke-opacity:1"
       d="m 207.76776,590.73799 c 10.193,38.58998 41.187,83.55308 98.294,108.48808 74.63201,33.5389 171.10701,48.7839 180.57301,37.1339 9.465,-11.6489 -44.414,-53.8799 -58.977,-88.101 -14.562,-34.22198 -14.562,-47.32798 -24.028,-57.52098"
       inkscape:connector-curvature="0"
       sodipodi:nodetypes="ccscc" />
    <path
       id="mitral_valve_2"
       style="font-size:12px;fill:#ffffff;fill-rule:evenodd;stroke:#000000;stroke-width:2.5;stroke-linejoin:round"
       transform="matrix(-0.377592,0.925973,0.925973,0.377592,8.608642,5.534943)"
       d="m 260.676,652.145 c -10.16,-2.884 -3.543,-15.832 13.271,-22.283 20.354,-8.296 33.858,1.867 51.016,13.306 -16.118,-2.08 -28.495,-12.148 -47.507,-1.771 -10.994,5.627 -5.614,13.381 -16.78,10.748 z"
       inkscape:connector-curvature="0" />
    <text
       sodipodi:linespacing="125%"
       id="text4240"
       y="812.36206"
       x="477.62067"
       style="font-style:normal;font-variant:normal;font-weight:normal;font-stretch:normal;font-size:20px;line-height:125%;font-family:'TeX Gyre Schola Math';-inkscape-font-specification:'TeX Gyre Schola Math';letter-spacing:0px;word-spacing:0px;fill:#000000;fill-opacity:1;stroke:none;stroke-width:1px;stroke-linecap:butt;stroke-linejoin:miter;stroke-opacity:1"
       xml:space="preserve"><tspan
         y="812.36206"
         x="477.62067"
         id="tspan4242"
         sodipodi:role="line">Endocardium</tspan></text>
    <text
       sodipodi:linespacing="125%"
       id="text4244"
       y="513.43103"
       x="565.01721"
       style="font-style:normal;font-variant:normal;font-weight:normal;font-stretch:normal;font-size:20px;line-height:125%;font-family:'TeX Gyre Schola Math';-inkscape-font-specification:'TeX Gyre Schola Math';letter-spacing:0px;word-spacing:0px;fill:#000000;fill-opacity:1;stroke:none;stroke-width:1px;stroke-linecap:butt;stroke-linejoin:miter;stroke-opacity:1"
       xml:space="preserve"><tspan
         y="513.43103"
         x="565.01721"
         id="tspan4246"
         sodipodi:role="line">Epicardium</tspan></text>
    <path
       inkscape:connector-curvature="0"
       id="path4248"
       d="m 525.68964,796.63793 0,-204.41378"
       style="fill:none;fill-rule:evenodd;stroke:#000000;stroke-width:4;stroke-linecap:butt;stroke-linejoin:miter;stroke-miterlimit:4;stroke-dasharray:4, 4;stroke-dashoffset:0;stroke-opacity:1" />
    <path
       inkscape:connector-curvature="0"
       id="path4250"
       d="m 635.7586,517.5345 -54.05172,53.06896"
       style="fill:none;fill-rule:evenodd;stroke:#000000;stroke-width:4;stroke-linecap:butt;stroke-linejoin:miter;stroke-miterlimit:4;stroke-dasharray:4, 4;stroke-dashoffset:0;stroke-opacity:1" />
    <text
       sodipodi:linespacing="125%"
       id="text4252"
       y="614.82758"
       x="231.84482"
       style="font-style:normal;font-variant:normal;font-weight:normal;font-stretch:normal;font-size:20px;line-height:125%;font-family:'TeX Gyre Schola Math';-inkscape-font-specification:'TeX Gyre Schola Math';letter-spacing:0px;word-spacing:0px;fill:#000000;fill-opacity:1;stroke:none;stroke-width:1px;stroke-linecap:butt;stroke-linejoin:miter;stroke-opacity:1"
       xml:space="preserve"><tspan
         y="614.82758"
         x="231.84482"
         id="tspan4254"
         sodipodi:role="line">RA</tspan></text>
    <text
       sodipodi:linespacing="125%"
       id="text4256"
       y="470.50003"
       x="400.8793"
       style="font-style:normal;font-variant:normal;font-weight:normal;font-stretch:normal;font-size:20px;line-height:125%;font-family:'TeX Gyre Schola Math';-inkscape-font-specification:'TeX Gyre Schola Math';letter-spacing:0px;word-spacing:0px;fill:#000000;fill-opacity:1;stroke:none;stroke-width:1px;stroke-linecap:butt;stroke-linejoin:miter;stroke-opacity:1"
       xml:space="preserve"><tspan
         y="470.50003"
         x="400.8793"
         id="tspan4258"
         sodipodi:role="line">LA</tspan></text>
    <text
       sodipodi:linespacing="125%"
       id="text4260"
       y="365.20694"
       x="567.94824"
       style="font-style:normal;font-variant:normal;font-weight:normal;font-stretch:normal;font-size:20px;line-height:125%;font-family:'TeX Gyre Schola Math';-inkscape-font-specification:'TeX Gyre Schola Math';letter-spacing:0px;word-spacing:0px;fill:#000000;fill-opacity:1;stroke:none;stroke-width:1px;stroke-linecap:butt;stroke-linejoin:miter;stroke-opacity:1"
       xml:space="preserve"><tspan
         y="365.20694"
         x="567.94824"
         id="tspan4262"
         sodipodi:role="line">Mitral valve</tspan></text>
    <text
       sodipodi:linespacing="125%"
       id="text4264"
       y="293.46552"
       x="474.58615"
       style="font-style:normal;font-variant:normal;font-weight:normal;font-stretch:normal;font-size:20px;line-height:125%;font-family:'TeX Gyre Schola Math';-inkscape-font-specification:'TeX Gyre Schola Math';letter-spacing:0px;word-spacing:0px;fill:#000000;fill-opacity:1;stroke:none;stroke-width:1px;stroke-linecap:butt;stroke-linejoin:miter;stroke-opacity:1"
       xml:space="preserve"><tspan
         y="293.46552"
         x="474.58615"
         id="tspan4266"
         sodipodi:role="line">Aortic valve</tspan></text>
    <text
       sodipodi:linespacing="125%"
       id="text4268"
       y="810.39655"
       x="273.1207"
       style="font-style:normal;font-variant:normal;font-weight:normal;font-stretch:normal;font-size:20px;line-height:125%;font-family:'TeX Gyre Schola Math';-inkscape-font-specification:'TeX Gyre Schola Math';letter-spacing:0px;word-spacing:0px;fill:#000000;fill-opacity:1;stroke:none;stroke-width:1px;stroke-linecap:butt;stroke-linejoin:miter;stroke-opacity:1"
       xml:space="preserve"><tspan
         y="810.39655"
         x="273.1207"
         id="tspan4270"
         sodipodi:role="line">Pulmonary valve</tspan></text>
    <text
       sodipodi:linespacing="125%"
       id="text4272"
       y="684.60345"
       x="56.913788"
       style="font-style:normal;font-variant:normal;font-weight:normal;font-stretch:normal;font-size:20px;line-height:125%;font-family:'TeX Gyre Schola Math';-inkscape-font-specification:'TeX Gyre Schola Math';letter-spacing:0px;word-spacing:0px;fill:#000000;fill-opacity:1;stroke:none;stroke-width:1px;stroke-linecap:butt;stroke-linejoin:miter;stroke-opacity:1"
       xml:space="preserve"><tspan
         y="684.60345"
         x="56.913788"
         id="tspan4274"
         sodipodi:role="line">Tricuspid valve</tspan></text>
    <path
       style="fill:none;fill-rule:evenodd;stroke:#000000;stroke-width:4;stroke-linecap:butt;stroke-linejoin:miter;stroke-miterlimit:4;stroke-dasharray:4, 4;stroke-dashoffset:0;stroke-opacity:1"
       d="M 612.87595,371.42572 479.77918,517.21224"
       id="path4276"
       inkscape:connector-curvature="0" />
    <path
       inkscape:connector-curvature="0"
       id="path4278"
       d="M 506.78528,297.65758 428.62847,538.89419"
       style="fill:none;fill-rule:evenodd;stroke:#000000;stroke-width:4;stroke-linecap:butt;stroke-linejoin:miter;stroke-miterlimit:4;stroke-dasharray:4, 4;stroke-dashoffset:0;stroke-opacity:1" />
    <path
       style="fill:none;fill-rule:evenodd;stroke:#000000;stroke-width:4;stroke-linecap:butt;stroke-linejoin:miter;stroke-miterlimit:4;stroke-dasharray:4, 4;stroke-dashoffset:0;stroke-opacity:1"
       d="M 282.43877,637.55902 126.21639,667.76859"
       id="path4280"
       inkscape:connector-curvature="0" />
    <path
       inkscape:connector-curvature="0"
       id="path4282"
       d="M 374.6518,570.91879 307.21024,797.30538"
       style="fill:none;fill-rule:evenodd;stroke:#000000;stroke-width:4;stroke-linecap:butt;stroke-linejoin:miter;stroke-miterlimit:4;stroke-dasharray:4, 4;stroke-dashoffset:0;stroke-opacity:1" />
    <text
       xml:space="preserve"
       style="font-style:normal;font-variant:normal;font-weight:normal;font-stretch:normal;font-size:20px;line-height:125%;font-family:'TeX Gyre Schola Math';-inkscape-font-specification:'TeX Gyre Schola Math';letter-spacing:0px;word-spacing:0px;fill:#000000;fill-opacity:1;stroke:none;stroke-width:1px;stroke-linecap:butt;stroke-linejoin:miter;stroke-opacity:1"
       x="605.79309"
       y="756.13794"
       id="text4262"
       sodipodi:linespacing="125%"><tspan
         sodipodi:role="line"
         id="tspan4264"
         x="605.79309"
         y="756.13794">Apex</tspan></text>
    <text
       sodipodi:linespacing="125%"
       id="text4269"
       y="531.08624"
       x="128.17242"
       style="font-style:normal;font-variant:normal;font-weight:normal;font-stretch:normal;font-size:20px;line-height:125%;font-family:'TeX Gyre Schola Math';-inkscape-font-specification:'TeX Gyre Schola Math';letter-spacing:0px;word-spacing:0px;fill:#000000;fill-opacity:1;stroke:none;stroke-width:1px;stroke-linecap:butt;stroke-linejoin:miter;stroke-opacity:1"
       xml:space="preserve"><tspan
         y="531.08624"
         x="128.17242"
         id="tspan4271"
         sodipodi:role="line">Base</tspan></text>
  </g>
</svg>
