<?xml version="1.0" encoding="UTF-8" standalone="no"?>
<!-- Generator: Adobe Illustrator 16.0.3, SVG Export Plug-In . SVG Version: 6.00 Build 0)  -->

<svg
   xmlns:ns0="http://www.iki.fi/pav/software/textext/"
   xmlns:dc="http://purl.org/dc/elements/1.1/"
   xmlns:cc="http://creativecommons.org/ns#"
   xmlns:rdf="http://www.w3.org/1999/02/22-rdf-syntax-ns#"
   xmlns:svg="http://www.w3.org/2000/svg"
   xmlns="http://www.w3.org/2000/svg"
   xmlns:sodipodi="http://sodipodi.sourceforge.net/DTD/sodipodi-0.dtd"
   xmlns:inkscape="http://www.inkscape.org/namespaces/inkscape"
   version="1.1"
   id="svg2"
   x="0px"
   y="0px"
   width="930"
   height="500"
   viewBox="0 0 930 500.00001"
   enable-background="new 0 0 1098.428 840.816"
   xml:space="preserve"
   inkscape:version="0.91 r13725"
   sodipodi:docname="pumping_function.svg"><sodipodi:namedview
     pagecolor="#ffffff"
     bordercolor="#666666"
     borderopacity="1"
     objecttolerance="10"
     gridtolerance="10"
     guidetolerance="10"
     inkscape:pageopacity="0"
     inkscape:pageshadow="2"
     inkscape:window-width="2495"
     inkscape:window-height="1416"
     id="namedview103"
     showgrid="false"
     inkscape:zoom="0.89230766"
     inkscape:cx="-31.732963"
     inkscape:cy="130.42894"
     inkscape:window-x="65"
     inkscape:window-y="24"
     inkscape:window-maximized="1"
     inkscape:current-layer="svg2"
     fit-margin-top="0"
     fit-margin-left="0"
     fit-margin-right="0"
     fit-margin-bottom="0" /><metadata
     id="metadata107"><rdf:RDF><cc:Work
         rdf:about=""><dc:format>image/svg+xml</dc:format><dc:type
           rdf:resource="http://purl.org/dc/dcmitype/StillImage" /><dc:title></dc:title></cc:Work></rdf:RDF></metadata><defs
     id="defs105"><marker
       inkscape:stockid="Arrow1Lstart"
       orient="auto"
       refY="0"
       refX="0"
       id="marker4751"
       style="overflow:visible"
       inkscape:isstock="true"><path
         id="path4426"
         d="M 0,0 5,-5 -12.5,0 5,5 0,0 Z"
         style="fill:#000000;fill-opacity:1;fill-rule:evenodd;stroke:#000000;stroke-width:1pt;stroke-opacity:1"
         transform="matrix(0.8,0,0,0.8,10,0)"
         inkscape:connector-curvature="0" /></marker><marker
       inkscape:stockid="Arrow1Lend"
       orient="auto"
       refY="0"
       refX="0"
       id="marker4682"
       style="overflow:visible"
       inkscape:isstock="true"><path
         id="path4429"
         d="M 0,0 5,-5 -12.5,0 5,5 0,0 Z"
         style="fill:#000000;fill-opacity:1;fill-rule:evenodd;stroke:#000000;stroke-width:1pt;stroke-opacity:1"
         transform="matrix(-0.8,0,0,-0.8,-10,0)"
         inkscape:connector-curvature="0" /></marker><marker
       inkscape:isstock="true"
       style="overflow:visible"
       id="marker4669"
       refX="0"
       refY="0"
       orient="auto"
       inkscape:stockid="Arrow1Lend"><path
         transform="matrix(-0.8,0,0,-0.8,-10,0)"
         style="fill:#ff0000;fill-opacity:1;fill-rule:evenodd;stroke:#ff0000;stroke-width:1pt;stroke-opacity:1"
         d="M 0,0 5,-5 -12.5,0 5,5 0,0 Z"
         id="path4671"
         inkscape:connector-curvature="0" /></marker><marker
       inkscape:stockid="Arrow1Lstart"
       orient="auto"
       refY="0"
       refX="0"
       id="marker4647"
       style="overflow:visible"
       inkscape:isstock="true"><path
         id="path4649"
         d="M 0,0 5,-5 -12.5,0 5,5 0,0 Z"
         style="fill:#000000;fill-opacity:1;fill-rule:evenodd;stroke:#000000;stroke-width:1pt;stroke-opacity:1"
         transform="matrix(0.8,0,0,0.8,10,0)"
         inkscape:connector-curvature="0" /></marker><marker
       inkscape:stockid="Arrow1Lstart"
       orient="auto"
       refY="0"
       refX="0"
       id="Arrow1Lstart"
       style="overflow:visible"
       inkscape:isstock="true"><path
         id="path4353"
         d="M 0,0 5,-5 -12.5,0 5,5 0,0 Z"
         style="fill:#000000;fill-opacity:1;fill-rule:evenodd;stroke:#000000;stroke-width:1pt;stroke-opacity:1"
         transform="matrix(0.8,0,0,0.8,10,0)"
         inkscape:connector-curvature="0" /></marker><clipPath
       clipPathUnits="userSpaceOnUse"
       id="clipPath4261"><rect
         style="opacity:1;fill:none;fill-opacity:0.89019608;stroke:#000000;stroke-width:4.25827122;stroke-linecap:square;stroke-miterlimit:4;stroke-dasharray:4.25827134, 4.25827134;stroke-dashoffset:0;stroke-opacity:1"
         id="rect4263"
         width="494.95688"
         height="677.40454"
         x="142.17766"
         y="201.07501" /></clipPath><clipPath
       clipPathUnits="userSpaceOnUse"
       id="clipPath4265"><rect
         style="opacity:1;fill:none;fill-opacity:0.89019608;stroke:#000000;stroke-width:4.25827122;stroke-linecap:square;stroke-miterlimit:4;stroke-dasharray:4.25827134, 4.25827134;stroke-dashoffset:0;stroke-opacity:1"
         id="rect4267"
         width="494.95688"
         height="677.40454"
         x="142.17766"
         y="201.07501" /></clipPath><marker
       style="overflow:visible"
       id="Arrow1Lstart-3"
       refX="0"
       refY="0"
       orient="auto"
       inkscape:stockid="Arrow1Lstart"><path
         inkscape:connector-curvature="0"
         transform="matrix(0.8,0,0,0.8,10,0)"
         style="fill-rule:evenodd;stroke:#000000;stroke-width:1pt"
         d="M 0,0 5,-5 -12.5,0 5,5 0,0 Z"
         id="path3759" /></marker><marker
       inkscape:isstock="true"
       style="overflow:visible"
       id="marker5257"
       refX="0"
       refY="0"
       orient="auto"
       inkscape:stockid="Arrow1Lend"><path
         inkscape:connector-curvature="0"
         transform="matrix(-0.8,0,0,-0.8,-10,0)"
         style="fill:#000000;fill-opacity:1;fill-rule:evenodd;stroke:#000000;stroke-width:1pt;stroke-opacity:1"
         d="M 0,0 5,-5 -12.5,0 5,5 0,0 Z"
         id="path5259" /></marker></defs><path
     style="fill:none;fill-rule:evenodd;stroke:#000000;stroke-width:1;stroke-linecap:butt;stroke-linejoin:miter;stroke-miterlimit:4;stroke-dasharray:none;stroke-opacity:1"
     d="m 363.80251,416.76683 206.54547,-22.55961 0,-187.99669 c 0,0 -125.4716,-165.437104 -250.9431,-63.91889 l -1.93033,251.91558 c 0,0 13.51232,24.43958 46.32796,22.55961 z"
     id="path4144"
     inkscape:connector-curvature="0" /><text
     style="font-style:normal;font-variant:normal;font-weight:normal;font-stretch:normal;font-size:19.99979973px;font-family:'TeX Gyre Schola';-inkscape-font-specification:'TeX Gyre Schola'"
     font-size="19.9998"
     transform="matrix(0.99991471,-0.02181712,-0.0130626,1.0003703,0,0)"
     id="text4293"
     x="536.401"
     y="395.44019">ED</text>
<flowRoot
     xml:space="preserve"
     id="flowRoot4835"
     style="font-style:normal;font-weight:normal;font-size:20px;line-height:125%;font-family:sans-serif;letter-spacing:0px;word-spacing:0px;fill:#000000;fill-opacity:1;stroke:none;stroke-width:1px;stroke-linecap:butt;stroke-linejoin:miter;stroke-opacity:1"
     transform="translate(-75.851592,-184.78693)"><flowRegion
       id="flowRegion4837"><rect
         id="rect4839"
         width="449.69199"
         height="106.894"
         x="715.08398"
         y="125.73199" /></flowRegion><flowPara
       id="flowPara4841" /></flowRoot><text
     y="163.32643"
     x="329.43829"
     id="text4418"
     transform="matrix(0.99991471,-0.02181712,-0.0130626,1.0003703,0,0)"
     font-size="19.9998"
     style="font-style:normal;font-variant:normal;font-weight:normal;font-stretch:normal;font-size:19.99979973px;font-family:'TeX Gyre Schola';-inkscape-font-specification:'TeX Gyre Schola'">ES</text>
<path
     style="fill:none;stroke:#000000;stroke-width:2.1049273;stroke-linecap:butt;stroke-linejoin:miter;stroke-miterlimit:4;stroke-dasharray:none;stroke-opacity:1;marker-start:url(#Arrow1Lstart-3);marker-end:url(#marker5257)"
     d="m 917.55655,448.79959 c 0,0 0,0 -875.669595,2.66373 l 1.9119,-439.525063"
     id="path5072"
     inkscape:connector-curvature="0" /><text
     xml:space="preserve"
     style="font-style:normal;font-variant:normal;font-weight:normal;font-stretch:normal;font-size:7.83543587px;line-height:125%;font-family:'TeX Gyre Schola';-inkscape-font-specification:'TeX Gyre Schola';letter-spacing:0px;word-spacing:0px;fill:#000000;fill-opacity:1;stroke:none;stroke-width:1px;stroke-linecap:butt;stroke-linejoin:miter;stroke-opacity:1"
     x="822.23621"
     y="495.69998"
     id="text5165"
     sodipodi:linespacing="125%"><tspan
       sodipodi:role="line"
       id="tspan5167"
       x="822.23621"
       y="495.69998"
       style="font-size:20px">Volume</tspan></text>
<text
     xml:space="preserve"
     style="font-style:normal;font-variant:normal;font-weight:normal;font-stretch:normal;font-size:7.83543587px;line-height:125%;font-family:'TeX Gyre Schola';-inkscape-font-specification:'TeX Gyre Schola';letter-spacing:0px;word-spacing:0px;fill:#000000;fill-opacity:1;stroke:none;stroke-width:1px;stroke-linecap:butt;stroke-linejoin:miter;stroke-opacity:1"
     x="-94.449333"
     y="19.015495"
     id="text5268"
     sodipodi:linespacing="125%"
     transform="matrix(0.00612859,-0.99998122,0.99998122,0.00612859,0,0)"><tspan
       sodipodi:role="line"
       id="tspan5270"
       x="-94.449333"
       y="19.015495"
       style="font-size:20px">Pressure</tspan></text>
<path
     style="fill:none;fill-rule:evenodd;stroke:#000000;stroke-width:1;stroke-linecap:butt;stroke-linejoin:miter;stroke-miterlimit:4;stroke-dasharray:none;stroke-opacity:1"
     d="m 569.96498,394.45325 -169.05746,18.95499 -86.86378,8.52974 -196.14401,29.38024"
     id="path6888"
     inkscape:connector-curvature="0" /><path
     style="fill:none;fill-rule:evenodd;stroke:#000000;stroke-width:1px;stroke-linecap:butt;stroke-linejoin:miter;stroke-opacity:1"
     d="m 571.56122,393.56496 c 0,0 58.6411,-7.13203 95.09368,-49.92418"
     id="path6890"
     inkscape:connector-curvature="0" /><path
     style="fill:none;fill-rule:evenodd;stroke:#000000;stroke-width:1px;stroke-linecap:butt;stroke-linejoin:miter;stroke-opacity:1"
     d="M 390.99652,31.793886 116.80976,453.37585"
     id="path4258"
     inkscape:connector-curvature="0" /><text
     style="font-style:normal;font-variant:normal;font-weight:normal;font-stretch:normal;font-size:19.99979973px;font-family:'TeX Gyre Schola';-inkscape-font-specification:'TeX Gyre Schola'"
     font-size="19.9998"
     transform="matrix(0.99991471,-0.02181712,-0.0130626,1.0003703,0,0)"
     id="text4259"
     x="294.7561"
     y="56.42141">ESPVR</text>
<text
     y="403.19983"
     x="637.94427"
     id="text4261"
     transform="matrix(0.99991471,-0.02181712,-0.0130626,1.0003703,0,0)"
     font-size="19.9998"
     style="font-style:normal;font-variant:normal;font-weight:normal;font-stretch:normal;font-size:19.99979973px;font-family:'TeX Gyre Schola';-inkscape-font-specification:'TeX Gyre Schola'">EDPVR</text>
<text
     xml:space="preserve"
     style="font-style:normal;font-weight:normal;font-size:50px;line-height:125%;font-family:sans-serif;letter-spacing:0px;word-spacing:0px;fill:#000000;fill-opacity:1;stroke:none;stroke-width:1px;stroke-linecap:butt;stroke-linejoin:miter;stroke-opacity:1"
     x="-415.07343"
     y="224.81145"
     id="text4263"
     sodipodi:linespacing="125%"><tspan
       sodipodi:role="line"
       id="tspan4265"
       x="-415.07343"
       y="224.81145" /></text>
<text
     style="font-style:normal;font-variant:normal;font-weight:normal;font-stretch:normal;font-size:19.99979973px;font-family:'TeX Gyre Schola';-inkscape-font-specification:'TeX Gyre Schola'"
     font-size="19.9998"
     transform="matrix(0.99991471,-0.02181712,-0.0130626,1.0003703,0,0)"
     id="text4267"
     x="108.53782"
     y="485.70612" />
<g
     ns0:preamble=""
     ns0:text="$V_0$"
     word-spacing="normal"
     letter-spacing="normal"
     font-size-adjust="none"
     font-stretch="normal"
     font-weight="normal"
     font-variant="normal"
     font-style="normal"
     stroke-miterlimit="10.433"
     xml:space="preserve"
     transform="matrix(2,0,0,-2,-335.60506,1787.5151)"
     id="content"
     style="font-style:normal;font-variant:normal;font-weight:normal;font-stretch:normal;letter-spacing:normal;word-spacing:normal;text-anchor:start;fill:none;fill-opacity:1;fill-rule:evenodd;stroke:#000000;stroke-linecap:butt;stroke-linejoin:miter;stroke-miterlimit:10.43299961;stroke-dasharray:none;stroke-dashoffset:0;stroke-opacity:1"><path
       id="path4408"
       d="m 229.69,662.9 0.04,0.07 0.05,0.07 0.04,0.06 0.05,0.06 0.04,0.05 0.05,0.05 0.04,0.05 0.04,0.05 0.04,0.04 0.05,0.03 0.04,0.04 0.04,0.03 0.04,0.03 0.04,0.02 0.04,0.03 0.04,0.02 0.04,0.02 0.04,0.01 0.04,0.02 0.04,0.01 0.04,0.01 0.03,0.01 0.04,0.01 0.04,0.01 0.03,0.01 0.04,0 0.07,0.01 0.07,0 0.07,0.01 c 0.12,0.01 0.13,0.18 0.13,0.19 0,0.08 -0.05,0.12 -0.13,0.12 -0.25,0 -0.54,-0.03 -0.81,-0.03 -0.33,0 -0.67,0.03 -0.99,0.03 -0.06,0 -0.19,0 -0.19,-0.19 0,-0.11 0.09,-0.12 0.16,-0.12 0.27,-0.02 0.46,-0.12 0.46,-0.33 0,-0.15 -0.15,-0.37 -0.15,-0.38 l -3.06,-4.86 -0.68,5.27 c 0,0.17 0.23,0.3 0.69,0.3 0.14,0 0.25,0 0.25,0.2 0,0.09 -0.08,0.11 -0.14,0.11 -0.4,0 -0.83,-0.03 -1.23,-0.03 -0.18,0 -0.37,0.01 -0.55,0.01 -0.18,0 -0.37,0.02 -0.54,0.02 -0.07,0 -0.19,0 -0.19,-0.19 0,-0.12 0.09,-0.12 0.25,-0.12 0.56,0 0.57,-0.09 0.6,-0.34 l 0.78,-6.15 c 0.03,-0.2 0.07,-0.23 0.2,-0.23 0.16,0 0.2,0.05 0.28,0.18 z"
       inkscape:connector-curvature="0"
       style="fill:#000000;stroke-width:0" /><path
       id="path4410"
       d="m 232.84,657.97 0,0.14 0,0.13 -0.01,0.13 -0.01,0.13 -0.01,0.13 -0.01,0.11 -0.02,0.12 -0.02,0.11 -0.03,0.11 -0.03,0.11 -0.03,0.1 -0.04,0.1 -0.04,0.1 -0.05,0.09 -0.05,0.1 -0.03,0.05 -0.03,0.04 c -0.21,0.32 -0.65,0.6 -1.2,0.6 -1.62,0 -1.62,-1.9 -1.62,-2.4 0,-0.51 0,-2.37 1.62,-2.37 l 0,0.2 c -0.33,0 -0.75,0.18 -0.89,0.76 -0.1,0.41 -0.1,0.98 -0.1,1.49 0,0.51 0,1.04 0.11,1.43 0.14,0.55 0.59,0.69 0.88,0.69 0.37,0 0.73,-0.22 0.86,-0.63 0.11,-0.38 0.12,-0.88 0.12,-1.49 0,-0.51 0,-1.03 -0.09,-1.47 -0.14,-0.63 -0.61,-0.78 -0.89,-0.78 l 0,0 0,-0.2 c 1.61,0 1.61,1.86 1.61,2.37 z"
       inkscape:connector-curvature="0"
       style="fill:#000000;stroke-width:0" /></g><circle
     style="opacity:1;fill:#24221c;fill-opacity:1;stroke:none;stroke-width:1;stroke-linecap:square;stroke-miterlimit:4;stroke-dasharray:none;stroke-dashoffset:0;stroke-opacity:1"
     id="path4469"
     cx="319.56296"
     cy="142.35918"
     r="4.7546835" /><circle
     r="4.7546835"
     cy="391.98007"
     cx="569.97632"
     id="circle4471"
     style="opacity:1;fill:#24221c;fill-opacity:1;stroke:none;stroke-width:1;stroke-linecap:square;stroke-miterlimit:4;stroke-dasharray:none;stroke-dashoffset:0;stroke-opacity:1" /></svg>